<svg width="72" height="66" fill="none" xmlns="http://www.w3.org/2000/svg"><path d="M6 33C6 14.775 20.775 0 39 0s33 14.775 33 33-14.775 33-33 33S6 51.225 6 33z" fill="#A3C359"/><path d="M23.722 14H21.31a8.937 8.937 0 00-6.364 2.636L3.29 28.293a1 1 0 000 1.414l5 5a1 1 0 001.414 0l9.293-9.293v10.417l-7.944 22.84A1 1 0 0011.996 60h9a1 1 0 00.944-.671l7.112-20.444 8.013 20.48a1 1 0 00.931.635h9a1.001 1.001 0 00.932-1.364L38.996 35.81V25.415l9.293 9.293a1 1 0 001.414 0l5-5a1 1 0 000-1.414L43.046 16.636A8.937 8.937 0 0036.683 14H34.27a7.975 7.975 0 002.726-6c0-4.411-3.589-8-8-8s-8 3.589-8 8c0 2.39 1.06 4.533 2.726 6zm12.96 2c1.87 0 3.628.728 4.95 2.05L52.582 29l-3.586 3.586-10.293-10.293a1.001 1.001 0 00-1.707.707v13c0 .124.023.248.069.364L45.53 58H38.68l-8.751-22.364a1 1 0 00-.932-.636h-.02a1 1 0 00-.924.671L20.285 58h-6.883l7.538-21.671a.993.993 0 00.056-.329V23a1 1 0 00-1.707-.707L8.996 32.586 5.41 29l10.95-10.95A6.952 6.952 0 0121.31 16h15.373zM28.997 2c3.309 0 6 2.691 6 6s-2.691 6-6 6c-3.308 0-6-2.691-6-6s2.692-6 6-6z" fill="#393186"/><path d="M28.308 30.726a.997.997 0 001.377 0l4.288-4.07a3.218 3.218 0 000-4.707c-1.325-1.256-3.482-1.258-4.807 0h-.001l-.169.16-.17-.16c-1.323-1.257-3.481-1.258-4.806 0a3.218 3.218 0 00-.001 4.707l4.289 4.07zM25.395 23.4a1.488 1.488 0 011.028-.403c.372 0 .744.134 1.027.402l.858.814a1 1 0 001.377 0l.857-.814a1.513 1.513 0 012.056.001c.257.244.398.565.398.902 0 .338-.142.659-.4.903l-3.6 3.417-3.601-3.417a1.24 1.24 0 01-.399-.903c0-.337.142-.658.4-.902zM49.726 9.728c-.49-.5-1-.985-1.514-1.44l-1.324 1.5c.478.422.953.873 1.41 1.339l1.428-1.4zM50.81 14.094l1.616-1.18a29.38 29.38 0 00-1.293-1.641l-1.526 1.292a27.14 27.14 0 011.203 1.529zM43.111 4.67a28.77 28.77 0 00-1.86-.952l-.846 1.813c.583.272 1.166.57 1.732.886l.974-1.747zM52.873 17.388l1.768-.936a29.08 29.08 0 00-1.044-1.81L51.9 15.704c.342.545.67 1.112.972 1.684zM55.957 28.547l1.998-.107c-.038-.697-.1-1.396-.185-2.08l-1.985.25c.08.635.138 1.287.172 1.937zM54.438 20.945l1.885-.672a29.003 29.003 0 00-.773-1.942l-1.83.808c.26.59.503 1.198.718 1.806zM55.108 42.623l-1.798-.872c-.28.577-.587 1.155-.912 1.718l1.733.999c.349-.605.678-1.225.977-1.845zM56.651 38.745l-1.906-.602c-.196.619-.415 1.234-.652 1.829l1.857.74c.255-.64.491-1.301.701-1.967zM53.023 46.237l-1.657-1.12a26.8 26.8 0 01-1.147 1.569l1.57 1.238a28.51 28.51 0 001.233-1.687zM47.6 49.56l1.378 1.45a29.7 29.7 0 001.462-1.493l-1.48-1.348c-.435.479-.893.947-1.36 1.391zM55.475 24.69l1.96-.391a28.515 28.515 0 00-.482-2.034l-1.928.534c.171.618.323 1.254.45 1.89zM57.62 34.685l-1.975-.32a27.343 27.343 0 01-.38 1.905l1.945.462c.16-.674.298-1.362.41-2.047zM57.991 30.527l-2-.034a26.78 26.78 0 01-.103 1.94l1.992.18c.061-.69.1-1.392.111-2.086zM46.6 6.962a29.11 29.11 0 00-1.703-1.21L43.8 7.426a27.2 27.2 0 011.586 1.125L46.6 6.962zM2.102 32.4A27.171 27.171 0 012 30.459l-2 .034c.013.698.049 1.4.11 2.085l1.992-.176zM2.21 26.576l-1.983-.252c-.086.682-.15 1.382-.188 2.08l1.996.109c.036-.65.095-1.302.176-1.937zM2.977 22.765l-1.928-.534a29.838 29.838 0 00-.486 2.03l1.961.396c.13-.638.28-1.274.453-1.892zM17.618 5.517l-.844-1.814a28.49 28.49 0 00-1.86.95l.972 1.746a26.97 26.97 0 011.732-.882zM6.11 15.675l-1.696-1.063c-.368.589-.72 1.197-1.045 1.808l1.766.938c.303-.569.63-1.135.974-1.683zM4.285 19.106l-1.83-.807a28.86 28.86 0 00-.773 1.94l1.882.673c.214-.599.457-1.206.721-1.806zM11.13 9.764L9.806 8.265c-.524.463-1.033.946-1.515 1.438l1.428 1.4c.449-.457.924-.908 1.41-1.339zM10.377 49.546a27.559 27.559 0 01-1.36-1.392L7.538 49.5c.46.506.95 1.008 1.46 1.494l1.38-1.447zM8.406 12.54l-1.523-1.296c-.45.529-.886 1.08-1.295 1.64L7.2 14.065c.381-.52.786-1.033 1.205-1.525zM3.89 39.948a26.781 26.781 0 01-.652-1.833l-1.908.602c.209.66.444 1.323.7 1.968l1.86-.737zM14.222 7.407l-1.096-1.674c-.576.377-1.15.783-1.705 1.206l1.213 1.59c.516-.394 1.05-.772 1.588-1.122zM.367 34.65c.11.682.247 1.372.408 2.05l1.946-.46a26.647 26.647 0 01-.38-1.907l-1.974.317zM5.582 43.448a27.393 27.393 0 01-.91-1.72l-1.8.872c.305.627.633 1.249.978 1.846l1.732-.998zM7.759 46.667a26.963 26.963 0 01-1.147-1.57l-1.656 1.12c.39.58.806 1.147 1.232 1.689l1.57-1.239zM30.038 58.981a28.968 28.968 0 002.085-.151l-.219-1.989a26.57 26.57 0 01-1.938.14l.072 2zM27.947 58.981l.075-1.999a26.977 26.977 0 01-1.94-.14l-.218 1.988c.692.075 1.393.126 2.083.151z" fill="#393186"/></svg>