<svg width="326" height="26" fill="none" xmlns="http://www.w3.org/2000/svg"><g clip-path="url(#a)"><path d="M230.955.017c2.895.008 5.791.004 8.688.002 1.363-.018 2.728.668 3.472 1.787.693.957.957 2.116 1.297 3.22 1.049 3.439 2.081 6.884 3.132 10.323.018.31.49.43.583.1 1.073-3.473 2.108-6.956 3.173-10.432.365-1.224.68-2.525 1.531-3.531a4.192 4.192 0 0 1 2.146-1.334c.709-.192 1.453-.119 2.179-.13 2.543.009 5.087-.022 7.629.015-.018 8.64.01 17.279-.015 25.917-2.75-.017-5.502.024-8.252-.021 0-5.068.012-10.136-.006-15.204-.017-.45-.783-.412-.835.013-1.638 5.062-3.286 10.122-4.9 15.19-1.942.044-3.887.01-5.831.018-1.635-5.063-3.257-10.129-4.91-15.186-.069-.418-.575-.433-.848-.188.005 5.12-.007 10.241.005 15.362-2.746.033-5.492.001-8.238.016V.017Zm37.585.016c2.745-.04 5.493.021 8.238-.033.043 5.129.005 10.259.018 15.387.236.205.667.269.811-.071 1.828-3.732 3.648-7.468 5.475-11.2.579-1.16 1.049-2.416 1.992-3.353.423-.388.949-.766 1.56-.74 2.799.002 5.598-.016 8.398.01.004 8.635.004 17.271 0 25.906-2.746.022-5.493.02-8.241.002-.002-5.116.011-10.232-.005-15.348-.007-.439-.77-.403-.849-.01-1.723 3.702-3.438 7.406-5.159 11.107-.529 1.123-1.032 2.281-1.822 3.26-.44.545-1.083 1.034-1.831 1.001-2.86-.001-5.722.004-8.582-.002 0-8.639.004-17.278-.003-25.916Zm30.509 11.835c8.627-.057 17.256 0 25.883-.027-.291 1.157-1.059 2.154-1.873 3.023a9.067 9.067 0 0 1-6.284 2.793c-3.151.016-6.303-.003-9.456.01-.018 2.763 0 5.525-.008 8.288-2.749-.012-5.499.008-8.249-.012-.013-4.69.013-9.383-.013-14.075Z" fill="#3DA536"/><path d="M298 .032a8542.13 8542.13 0 0 1 19.337-.007c1.691.118 3.324.786 4.663 1.789 1.945 1.475 3.256 3.738 3.472 6.137.051.863.033 1.734-.098 2.59-3.95.022-7.9.001-11.849.006-1.356-.012-2.719.054-4.065-.14-3.032-.374-6.023-1.605-8.172-3.762-1.812-1.769-2.928-4.152-3.288-6.613Z" fill="#008CD2"/><path d="M32.57 25.276 37.082.816h7.05l-4.37 24.46H32.57Z" fill="#3C58BF"/><path d="M32.57 25.276 38.351.816h5.781l-4.37 24.46H32.57Z" fill="#293688"/><path d="M65.282 1.087C63.872.544 61.616 0 58.796 0 51.746 0 46.67 3.397 46.67 8.29c0 3.669 3.525 5.571 6.345 6.794 2.82 1.223 3.666 2.038 3.666 3.125 0 1.631-2.256 2.447-4.23 2.447-2.82 0-4.371-.408-6.768-1.36l-.987-.407-.987 5.572c1.692.68 4.794 1.359 8.037 1.359 7.473 0 12.408-3.398 12.408-8.562 0-2.853-1.833-5.028-6.063-6.794C55.553 9.24 54 8.56 54 7.338c0-1.087 1.27-2.174 4.09-2.174 2.397 0 4.089.408 5.358.951l.705.272 1.128-5.3Z" fill="#3C58BF"/><path d="M65.282 1.087C63.872.544 61.616 0 58.796 0c-7.05 0-10.857 3.397-10.857 8.29 0 3.669 2.256 5.571 5.076 6.794 2.82 1.223 3.666 2.038 3.666 3.125 0 1.631-2.256 2.447-4.23 2.447-2.82 0-4.371-.408-6.768-1.36l-.987-.407-.987 5.572c1.692.68 4.794 1.359 8.037 1.359 7.473 0 12.408-3.398 12.408-8.562 0-2.853-1.833-5.028-6.063-6.794C55.553 9.24 54 8.56 54 7.338c0-1.087 1.27-2.174 4.09-2.174 2.397 0 4.089.408 5.358.951l.705.272 1.128-5.3Z" fill="#293688"/><path d="M77.407.815c-1.691 0-2.96.136-3.665 1.767L63.167 25.276h7.614l1.41-4.077h9.023l.846 4.077h6.768L82.906.816h-5.499Zm-3.242 16.308c.423-1.224 2.82-7.203 2.82-7.203s.564-1.495.987-2.446l.422 2.31s1.41 6.115 1.692 7.474h-5.921v-.136Z" fill="#3C58BF"/><path d="M79.1.815c-1.692 0-2.962.136-3.666 1.767L63.167 25.276h7.614l1.41-4.077h9.023l.846 4.077h6.768L82.906.816H79.1Zm-4.935 16.308c.563-1.36 2.82-7.203 2.82-7.203s.564-1.495.987-2.446l.422 2.31s1.41 6.115 1.692 7.474h-5.921v-.136Z" fill="#293688"/><path d="m19.599 17.938-.705-3.533c-1.27-4.077-5.358-8.562-9.87-10.736l6.345 21.743h7.614L34.403.952H26.79l-7.191 16.986Z" fill="#3C58BF"/><path d="m19.599 17.938-.705-3.533c-1.27-4.077-5.358-8.562-9.87-10.736l6.345 21.743h7.614L34.403.952H28.2l-8.601 16.986Z" fill="#293688"/><path d="m0 .815 1.269.272c9.024 2.039 15.228 7.203 17.625 13.318L16.356 2.854c-.423-1.63-1.692-2.039-3.243-2.039H0Z" fill="#FFBC00"/><path d="M0 .815C9.024 2.854 16.497 8.154 18.894 14.27L16.497 4.62c-.423-1.63-1.833-2.582-3.384-2.582L0 .815Z" fill="#F7981D"/><path d="M0 .815C9.024 2.854 16.497 8.154 18.894 14.27l-1.692-5.3c-.423-1.63-.987-3.261-2.961-3.94L0 .814Z" fill="#ED7C00"/><path d="m26.648 17.122-4.793-4.62-2.256 5.164-.564-3.397c-1.27-4.077-5.358-8.562-9.87-10.736l6.345 21.743h7.614l3.524-8.154ZM39.761 25.276l-6.063-5.98-1.128 5.98h7.191ZM55.976 16.85c.564.544.846.952.705 1.495 0 1.631-2.256 2.447-4.23 2.447-2.82 0-4.37-.408-6.768-1.36l-.987-.407-.987 5.572c1.692.679 4.794 1.358 8.037 1.358 4.512 0 8.178-1.223 10.293-3.397l-6.063-5.707ZM64.154 25.276h6.627l1.41-4.077h9.023l.847 4.076h6.767l-2.397-9.92-8.46-7.881.424 2.174s1.41 6.115 1.692 7.474h-5.922c.564-1.359 2.82-7.202 2.82-7.202s.564-1.495.987-2.446" fill="#051244"/><path d="M190.981 22.59a12.703 12.703 0 0 0 4.371-9.612c0-3.845-1.692-7.21-4.371-9.613A13.496 13.496 0 0 0 182.098 0c-7.332 0-13.324 5.837-13.324 12.978 0 7.14 5.992 12.909 13.324 12.909 3.384.068 6.557-1.236 8.883-3.296Z" fill="#07A9E2"/><path d="M168.774 12.978c0 7.14 5.992 12.909 13.324 12.909 3.455 0 6.557-1.236 8.883-3.365a12.702 12.702 0 0 0 4.371-9.613c0-3.845-1.692-7.141-4.371-9.544A13.496 13.496 0 0 0 182.098 0" fill="#009DDD"/><path d="M190.981 3.365A13.496 13.496 0 0 0 182.098 0h-.634c-4.16 2.953-6.839 7.69-6.839 12.978 0 5.287 2.679 10.025 6.768 12.909h.635c3.454 0 6.556-1.236 8.883-3.365a12.705 12.705 0 0 0 4.37-9.613c0-3.845-1.621-7.141-4.3-9.544Z" fill="#0284CC"/><path d="M199.934 0c-3.454 0-6.556 1.236-8.953 3.365-.494.412-.917.892-1.34 1.373h2.679c.353.412.706.893.987 1.373h-4.723c-.282.48-.564.893-.775 1.373h6.274c.211.481.423.893.564 1.374h-7.332c-.141.48-.282.892-.423 1.373h8.178c.211.893.282 1.785.282 2.747 0 1.442-.211 2.815-.705 4.12h-7.332c.141.48.353.892.564 1.373h6.274c-.211.48-.493.961-.775 1.373h-4.723c.281.48.634.961.986 1.373h2.679c-.422.481-.845.962-1.339 1.374 2.397 2.06 5.499 3.364 8.953 3.364 7.332 0 13.254-5.767 13.254-12.909 0-7.21-5.922-13.046-13.254-13.046Z" fill="#FF2957"/><path d="M199.934 0c-3.454 0-6.556 1.236-8.953 3.365-.494.412-.917.892-1.34 1.373h2.679c.353.412.706.893.987 1.373h-4.723c-.282.48-.564.893-.775 1.373h6.274c.211.481.423.893.564 1.374h-7.332c-.141.48-.282.892-.423 1.373h8.178c.211.893.282 1.785.282 2.747 0 1.442-.211 2.815-.705 4.12h-7.332c.141.48.353.892.564 1.373h6.274c-.211.48-.493.961-.775 1.373h-4.723c.281.48.634.961.986 1.373h2.679c-.422.481-.845.962-1.339 1.374 2.397 2.06 5.499 3.364 8.953 3.364 7.332 0 13.254-5.767 13.254-12.909" fill="#ED1C2E"/><path d="M190.981 22.59a12.703 12.703 0 0 0 4.371-9.613c0-3.845-1.692-7.21-4.371-9.613V22.59Z" fill="#0466B5"/><path d="M208.605 15.793c0-.206.212-.412.423-.412.212 0 .424.206.424.412s-.212.412-.424.412c-.211 0-.423-.206-.423-.412Zm.423.343c.212 0 .283-.137.283-.343 0-.206-.142-.275-.283-.275-.211 0-.352.137-.352.275 0 .137.212.343.352.343Zm0-.206h-.07v-.343h.211l.071.069c0 .068 0 .068-.071.068l.071.137h-.071l-.07-.137h-.071v.206Zm0-.206h.071v-.069h-.071v.07Z" fill="#fff"/><path d="M190.981 3.365c-.494.412-.917.893-1.34 1.373h2.679c.353.412.706.893.987 1.374h-4.723c-.282.48-.564.892-.775 1.373h6.274c.211.48.423.893.564 1.373h-7.332c-.141.481-.282.893-.423 1.374h8.178c.211.892.282 1.785.282 2.746 0 1.442-.211 2.816-.705 4.12h-7.332c.141.48.353.893.564 1.373h6.274c-.211.481-.493.962-.775 1.374h-4.724c.282.48.635.961.987 1.373h2.679c-.422.48-.845.961-1.339 1.373 2.397 2.06 5.499 3.365 8.953 3.365h.635c4.089-2.884 6.768-7.622 6.768-12.91 0-5.286-2.679-10.024-6.768-12.908h-.635c-3.454-.138-6.556 1.167-8.953 3.227Z" fill="#D1094B"/><path d="M180.406 16.205h-1.692l.987-5.012-2.256 5.012h-1.481l-.281-5.012-.987 5.012h-1.481l1.27-6.592h2.608l.141 4.12 1.832-4.12h2.679l-1.339 6.592Z" fill="#fff"/><path d="m178.785 13.32.987-2.128-.776 3.983c.07.343.141.755.282 1.098h1.128l1.269-6.591h-2.467c-.282 1.03-.494 2.197-.494 3.364.071.069.071.138.071.275ZM198.877 16.136c-.494.137-.776.206-1.198.206-.847 0-1.27-.412-1.27-1.167 0-.138 0-.275.07-.48l.071-.55.071-.412.775-4.051h1.622l-.212 1.236h.846l-.211 1.236h-.847l-.422 2.197c0 .068-.071.206-.071.206 0 .274.212.412.564.412.212 0 .353 0 .423-.069l-.211 1.236ZM203.741 10.918c-.141-.069-.141-.069-.211-.069s-.142 0-.142-.069h-.211c-.564 0-.917.206-1.41.893l.142-.824h-1.481l-.987 5.356h1.692c.563-3.296.846-3.845 1.621-3.845h.212l.211.068.564-1.51ZM192.32 12.566c0 .686.423 1.167 1.27 1.442.704.274.775.343.775.618 0 .343-.282.48-.987.48-.493 0-.987-.069-1.48-.206l-.212 1.236h.07l.283.069h.423c.423.069.704.069.916.069 1.763 0 2.608-.55 2.608-1.786 0-.755-.352-1.167-1.198-1.51-.705-.275-.775-.344-.775-.55 0-.274.281-.412.845-.412.283 0 .776 0 1.199.069l.211-1.236c-.423-.069-1.057-.069-1.48-.069-1.833 0-2.468.824-2.468 1.786ZM185.764 16.205h-1.339v-.55c-.423.413-.987.619-1.763.619-.917 0-1.481-.618-1.481-1.442 0-1.305 1.058-2.06 2.891-2.06h.705c.07-.206.07-.275.07-.344 0-.343-.281-.48-1.057-.48-.494 0-.987.069-1.339.137l-.212.069h-.141l.212-1.168c.845-.206 1.339-.274 1.973-.274 1.411 0 2.186.55 2.186 1.58 0 .274 0 .48-.141 1.098l-.353 1.922-.07.344-.071.274v.206l-.07.07Zm-1.198-2.403h-.353c-.917 0-1.41.274-1.41.824 0 .343.212.55.564.55.705 0 1.199-.55 1.199-1.374ZM191.192 16.068a7.126 7.126 0 0 1-1.692.206c-1.832 0-2.819-.824-2.819-2.404 0-1.853 1.198-3.158 2.89-3.158 1.34 0 2.185.755 2.185 1.922 0 .412-.07.756-.211 1.305h-3.313v.206c0 .618.493.961 1.409.961.635 0 1.128-.068 1.693-.343l-.142 1.305Zm-.845-3.159v-.275c0-.412-.283-.686-.776-.686-.494 0-.917.343-1.058.961h1.834Z" fill="#DCE5E5"/><path d="M208.888 13.802c-.283 1.785-1.551 2.54-3.243 2.54-1.834 0-2.609-1.098-2.609-2.472 0-1.853 1.269-3.158 3.243-3.158 1.692 0 2.609 1.098 2.609 2.403v.687Zm-1.763-.687c0-.55-.212-1.03-.916-1.03-.847 0-1.34.961-1.34 1.854 0 .687.353 1.167.917 1.167.352 0 1.127-.48 1.268-1.304.071-.275.071-.48.071-.687Z" fill="#fff"/><path d="M203.107 14.489c.07-.48.14-1.03.14-1.51v-.138c-.07.343-.14.686-.14 1.098-.071.138-.071.344 0 .55Z" fill="#fff"/><path d="M151.008 12.978c0 7.14-5.922 12.977-13.324 12.977-7.332 0-13.324-5.836-13.324-12.977S130.282 0 137.614 0c7.472 0 13.394 5.837 13.394 12.978Z" fill="#FFB600"/><path d="M137.684 0c7.332 0 13.324 5.837 13.324 12.978 0 7.14-5.922 12.977-13.324 12.977-7.332 0-13.324-5.836-13.324-12.977" fill="#F7981D"/><path d="M137.684 0c7.332 0 13.324 5.837 13.324 12.978 0 7.14-5.922 12.977-13.324 12.977" fill="#FF8500"/><path d="M119.777 0c-7.261.069-13.183 5.837-13.183 12.978 0 7.14 5.922 12.977 13.324 12.977 3.455 0 6.557-1.304 8.953-3.364.494-.412.917-.893 1.34-1.373h-2.749a15.54 15.54 0 0 1-.987-1.305h4.723c.282-.412.564-.893.775-1.373h-6.274a8.104 8.104 0 0 1-.564-1.374h7.332c.423-1.304.705-2.678.705-4.12 0-.96-.141-1.854-.282-2.746h-8.178c.07-.48.212-.893.353-1.373h7.332a8.101 8.101 0 0 0-.564-1.374h-6.204c.211-.48.493-.892.775-1.373h4.724a6.55 6.55 0 0 0-1.058-1.373h-2.608c.422-.481.845-.893 1.339-1.305-2.326-2.129-5.498-3.365-8.953-3.365 0-.137 0-.137-.071-.137Z" fill="#FF5050"/><path d="M106.594 12.978c0 7.141 5.922 12.978 13.324 12.978 3.455 0 6.557-1.305 8.953-3.365.494-.412.917-.892 1.34-1.373h-2.749a15.54 15.54 0 0 1-.987-1.305h4.723c.282-.412.564-.892.775-1.373h-6.274a8.104 8.104 0 0 1-.564-1.373h7.332c.423-1.305.705-2.678.705-4.12 0-.962-.141-1.854-.282-2.747h-8.178c.07-.48.212-.893.353-1.373h7.332a8.101 8.101 0 0 0-.564-1.373h-6.204c.211-.481.493-.893.775-1.374h4.724a6.55 6.55 0 0 0-1.058-1.373h-2.608c.422-.48.845-.893 1.339-1.305-2.326-2.128-5.498-3.364-8.953-3.364h-.071" fill="#E52836"/><path d="M119.918 25.956c3.455 0 6.557-1.305 8.953-3.365.494-.412.917-.892 1.34-1.373h-2.749a15.54 15.54 0 0 1-.987-1.305h4.723c.282-.412.564-.892.775-1.373h-6.274a8.104 8.104 0 0 1-.564-1.373h7.332c.423-1.305.705-2.678.705-4.12 0-.962-.141-1.854-.282-2.747h-8.178c.071-.48.212-.893.353-1.373h7.332a8.101 8.101 0 0 0-.564-1.373h-6.204c.211-.481.493-.893.776-1.374h4.723a6.55 6.55 0 0 0-1.058-1.373h-2.608c.422-.48.845-.893 1.339-1.305-2.326-2.128-5.498-3.364-8.953-3.364h-.071" fill="#CB2026"/><path d="m124.641 16.274.213-1.167c-.071 0-.213.068-.353.068-.494 0-.564-.274-.494-.412l.423-2.403h.775l.212-1.305h-.705l.142-.824h-1.411s-.846 4.532-.846 5.082c0 .824.493 1.167 1.128 1.167.423 0 .776-.137.916-.206ZM125.135 14.076c0 1.923 1.34 2.403 2.468 2.403 1.057 0 1.48-.206 1.48-.206l.282-1.304s-.775.343-1.481.343c-1.551 0-1.268-1.098-1.268-1.098h2.89s.212-.893.212-1.237c0-.892-.494-1.99-2.045-1.99-1.48-.138-2.538 1.373-2.538 3.09Zm2.468-1.991c.775 0 .634.892.634.961h-1.551c0-.069.141-.961.917-.961ZM136.556 16.274l.282-1.51s-.705.343-1.199.343c-.987 0-1.41-.756-1.41-1.58 0-1.648.847-2.54 1.834-2.54.704 0 1.268.412 1.268.412l.212-1.442s-.846-.344-1.621-.344c-1.622 0-3.244 1.374-3.244 3.983 0 1.716.846 2.884 2.538 2.884.564 0 1.34-.206 1.34-.206ZM116.887 10.849c-.987 0-1.692.274-1.692.274l-.212 1.168s.635-.275 1.551-.275c.494 0 .917.069.917.48 0 .275-.071.344-.071.344h-.634c-1.199 0-2.539.48-2.539 2.06 0 1.236.847 1.51 1.34 1.51.987 0 1.411-.617 1.481-.617l-.07.549h1.268l.564-3.777c0-1.648-1.41-1.716-1.903-1.716Zm.282 3.09c0 .206-.141 1.304-.987 1.304-.424 0-.564-.343-.564-.55 0-.342.211-.823 1.269-.823.211.069.282.069.282.069ZM120.13 16.41c.352 0 2.115.07 2.115-1.784 0-1.717-1.693-1.374-1.693-2.06 0-.344.283-.481.776-.481.211 0 .987.069.987.069l.212-1.236s-.494-.138-1.339-.138c-1.058 0-2.115.412-2.115 1.786 0 1.579 1.762 1.442 1.762 2.06 0 .412-.494.48-.847.48-.634 0-1.268-.206-1.268-.206l-.211 1.236c.07.137.422.275 1.621.275ZM148.259 9.75l-.283 1.854s-.564-.687-1.339-.687c-1.269 0-2.397 1.511-2.397 3.296 0 1.099.564 2.266 1.763 2.266.845 0 1.339-.55 1.339-.55l-.07.482h1.41l1.057-6.592-1.48-.069Zm-.634 3.64c0 .755-.353 1.716-1.128 1.716-.494 0-.776-.412-.776-1.099 0-1.098.493-1.785 1.127-1.785.494 0 .777.343.777 1.167ZM109.203 16.342l.846-4.944.141 4.944h.987l1.832-4.944-.775 4.944h1.48l1.129-6.592h-2.327l-1.41 4.051-.071-4.051h-2.044l-1.128 6.592h1.34ZM131.057 16.342c.423-2.266.493-4.12 1.48-3.776.141-.893.353-1.236.494-1.58h-.282c-.635 0-1.128.824-1.128.824l.141-.755h-1.34l-.916 5.356h1.551v-.069ZM139.799 10.849c-.987 0-1.692.274-1.692.274l-.212 1.168s.635-.275 1.551-.275c.494 0 .917.069.917.48 0 .275-.07.344-.07.344h-.635c-1.199 0-2.538.48-2.538 2.06 0 1.236.846 1.51 1.339 1.51.987 0 1.41-.617 1.481-.617l-.071.549h1.269l.565-3.777c.07-1.648-1.41-1.716-1.904-1.716Zm.353 3.09c0 .206-.142 1.304-.987 1.304-.423 0-.564-.343-.564-.55 0-.342.211-.823 1.268-.823.212.069.212.069.283.069ZM142.901 16.342c.423-2.266.494-4.12 1.481-3.776.14-.893.351-1.236.493-1.58h-.282c-.635 0-1.128.824-1.128.824l.141-.755h-1.339l-.917 5.356h1.551v-.069Z" fill="#fff"/><path d="M122.456 15.313c0 .824.494 1.167 1.128 1.167.494 0 .917-.137 1.057-.206l.213-1.167c-.071 0-.213.068-.353.068-.494 0-.564-.274-.494-.412l.423-2.403h.775l.213-1.305h-.706l.142-.824M125.84 14.076c0 1.923.635 2.403 1.763 2.403 1.057 0 1.48-.206 1.48-.206l.282-1.304s-.775.343-1.481.343c-1.551 0-1.268-1.098-1.268-1.098h2.89s.212-.893.212-1.237c0-.892-.494-1.99-2.045-1.99-1.481-.138-1.833 1.373-1.833 3.09Zm1.763-1.991c.775 0 .916.892.916.961h-1.833c0-.069.141-.961.917-.961ZM136.556 16.274l.282-1.51s-.705.343-1.199.343c-.987 0-1.41-.756-1.41-1.58 0-1.648.846-2.54 1.834-2.54.704 0 1.268.412 1.268.412l.212-1.442s-.846-.344-1.621-.344c-1.622 0-2.538 1.374-2.538 3.983 0 1.716.14 2.884 1.832 2.884.564 0 1.34-.206 1.34-.206ZM114.983 12.36s.635-.275 1.551-.275c.494 0 .917.069.917.48 0 .275-.071.344-.071.344h-.634c-1.199 0-2.539.48-2.539 2.06 0 1.236.847 1.51 1.34 1.51.987 0 1.411-.617 1.481-.617l-.07.549h1.268l.564-3.777c0-1.579-1.41-1.648-1.974-1.648l-1.833 1.374Zm2.89 1.579c0 .206-.845 1.305-1.691 1.305-.424 0-.564-.344-.564-.55 0-.343.211-.824 1.269-.824.211.069.986.069.986.069ZM118.579 16.273s.423.138 1.621.138c.352 0 2.115.069 2.115-1.785 0-1.717-1.691-1.374-1.691-2.06 0-.344.281-.481.775-.481.211 0 .987.069.987.069l.211-1.236s-.494-.138-1.339-.138c-1.058 0-1.41.412-1.41 1.786 0 1.579 1.057 1.442 1.057 2.06 0 .412-.493.48-.846.48M147.976 11.605s-.564-.687-1.339-.687c-1.269 0-1.691 1.51-1.691 3.296 0 1.098-.142 2.266 1.057 2.266.845 0 1.339-.55 1.339-.55l-.07.481h1.41l1.057-6.592-1.763 1.786Zm-.07 1.785c0 .755-.634 1.716-1.409 1.716-.494 0-.776-.412-.776-1.098 0-1.099.493-1.785 1.127-1.785.494 0 1.058.343 1.058 1.167ZM109.203 16.342l.846-4.944.141 4.944h.987l1.832-4.944-.775 4.944h1.48l1.129-6.592h-1.763l-1.974 4.051-.071-4.051h-.775l-2.397 6.592h1.34ZM129.577 16.342h1.48c.423-2.266.493-4.12 1.48-3.776.141-.893.353-1.236.494-1.58h-.282c-.635 0-1.128.824-1.128.824l.141-.755M137.895 12.36s.635-.275 1.551-.275c.494 0 .917.069.917.48 0 .275-.07.344-.07.344h-.635c-1.199 0-2.538.48-2.538 2.06 0 1.236.846 1.51 1.339 1.51.987 0 1.41-.617 1.481-.617l-.071.549h1.269l.565-3.777c0-1.579-1.41-1.648-1.974-1.648l-1.834 1.374Zm2.891 1.579c0 .206-.846 1.305-1.692 1.305-.423 0-.564-.344-.564-.55 0-.343.212-.824 1.269-.824.282.069.987.069.987.069ZM141.42 16.342h1.481c.423-2.266.494-4.12 1.481-3.776.14-.893.351-1.236.493-1.58h-.282c-.635 0-1.128.824-1.128.824l.141-.755" fill="#DCE5E5"/></g><defs><clipPath id="a"><path fill="#fff" d="M0 0h326v25.955H0z"/></clipPath></defs></svg>