<svg width="73" height="154" fill="none" xmlns="http://www.w3.org/2000/svg"><path d="M7 77c0-18.225 14.775-33 33-33s33 14.775 33 33-14.775 33-33 33S7 95.225 7 77z" fill="#A3C359"/><path d="M3.936 111h-2v2h2v-2zM5.28 97.848l-1.934-.509-.003.012-.003.012 1.94.485zm4.512-9.312l-1.558-1.254-.004.005 1.562 1.249zm8.352-7.104l-1.029-1.715-.007.004-.007.004 1.043 1.707zm6.912-3.744l.875 1.799.01-.005.01-.005-.895-1.789zm6.72-3.744l1.06 1.696.007-.004.007-.005-1.074-1.687zm5.088-4.608l-1.6-1.2-.007.01 1.607 1.19zm-.672-13.152l-1.414 1.414.026.026.027.026 1.361-1.466zm-14.208-1.248l.753 1.853.014-.006.014-.006-.781-1.841zm-5.568 3.168l1.21 1.592.01-.007-1.22-1.585zm-4.128 3.648l-1.447 1.38 1.453 1.522 1.446-1.526-1.452-1.376zm-8.064-8.448l-1.519-1.302-1.177 1.374 1.25 1.309 1.446-1.381zm5.28-4.608l1.179 1.616.007-.006-1.186-1.61zm8.928-4.704l.713 1.868-.713-1.868zm24.576.672l-.934 1.768.013.007.013.007.908-1.782zm7.68 7.2l-1.743.98.012.022.013.022 1.718-1.024zm.192 20.256l-1.7-1.053-.008.012 1.708 1.041zm-6.24 6.72l1.174 1.62-1.174-1.62zm-7.968 5.184l.945 1.763.03-.017.03-.017-1.005-1.729zm-10.08 6.048l-1.171-1.621-.01.008-.012.007 1.193 1.606zm-4.8 4.704l1.652 1.127.012-.017.011-.017-1.675-1.093zm-2.304 4.608l-1.89-.654-.919 2.654h2.809v-2zm33.984 0h2v-2h-2v2zm0 11.616v2h2v-2h-2zm-47.536 0c0-5.081.44-9.291 1.284-12.667l-3.88-.97c-.948 3.792-1.404 8.35-1.404 13.637h4zm1.278-12.643c.9-3.418 2.29-6.26 4.14-8.572L8.23 87.287c-2.247 2.808-3.864 6.174-4.884 10.052l3.868 1.018zm4.136-8.567c1.942-2.412 4.539-4.636 7.837-6.651L17.1 79.725c-3.614 2.209-6.585 4.721-8.867 7.557l3.116 2.508zm7.823-6.643a87.68 87.68 0 016.758-3.66l-1.75-3.597a91.682 91.682 0 00-7.066 3.827l2.058 3.43zm6.777-3.67a83.235 83.235 0 006.886-3.837l-2.12-3.392a79.194 79.194 0 01-6.554 3.651l1.788 3.578zm6.9-3.846c2.285-1.454 4.173-3.15 5.621-5.105l-3.214-2.38c-1.112 1.501-2.616 2.877-4.555 4.11l2.148 3.375zm5.614-5.095c1.633-2.178 2.416-4.755 2.416-7.632h-4c0 2.115-.561 3.826-1.616 5.232l3.2 2.4zm2.416-7.632c0-3.28-1.064-6.085-3.327-8.186L34.83 57.65c1.321 1.227 2.049 2.902 2.049 5.254h4zm-3.274-8.134c-2.208-2.209-5.246-3.178-8.806-3.178v4c2.84 0 4.73.759 5.978 2.006l2.828-2.828zM28.8 51.592c-2.684 0-5.223.496-7.597 1.503l1.562 3.682c1.85-.785 3.855-1.185 6.035-1.185v-4zm-7.569 1.491a25.714 25.714 0 00-6.034 3.436l2.438 3.17a21.725 21.725 0 015.102-2.9l-1.506-3.706zm-6.025 3.429c-1.67 1.269-3.13 2.556-4.37 3.864l2.904 2.752c1.064-1.124 2.356-2.269 3.886-3.432l-2.42-3.184zm-1.471 3.859L5.67 51.923l-2.894 2.762 8.064 8.448 2.894-2.762zm-7.992-5.765c1.007-1.176 2.627-2.607 4.94-4.294L8.325 47.08c-2.423 1.769-4.323 3.41-5.62 4.922l3.038 2.604zm4.947-4.3c2.257-1.662 5.064-3.15 8.455-4.446l-1.426-3.736c-3.65 1.393-6.794 3.04-9.401 4.962l2.372 3.22zm8.455-4.446c3.254-1.242 7.006-1.884 11.287-1.884v-4c-4.679 0-8.927.702-12.713 2.148l1.426 3.736zm11.287-1.884c4.761 0 8.611.855 11.642 2.456l1.868-3.536c-3.753-1.983-8.287-2.92-13.51-2.92v4zm11.668 2.47c3.07 1.564 5.326 3.698 6.845 6.398l3.486-1.96c-1.937-3.444-4.801-6.11-8.515-8.002L42.1 46.446zm6.87 6.442c1.584 2.658 2.406 5.783 2.406 9.44h4c0-4.28-.97-8.13-2.97-11.488l-3.436 2.048zm2.406 9.44c0 3.548-.767 6.43-2.197 8.74l3.401 2.105c1.899-3.066 2.796-6.713 2.796-10.845h-4zm-2.204 8.75c-1.458 2.392-3.354 4.438-5.706 6.143l2.348 3.238c2.768-2.007 5.032-4.441 6.774-7.298l-3.416-2.082zm-5.706 6.143a92.42 92.42 0 01-7.8 5.074l2.011 3.458a96.375 96.375 0 008.137-5.294l-2.348-3.238zm-7.74 5.04c-4.444 2.384-7.895 4.449-10.305 6.19l2.342 3.242c2.197-1.587 5.467-3.554 9.854-5.906l-1.89-3.526zM25.4 88.467c-2.331 1.732-4.14 3.465-5.282 5.216l3.35 2.185c.778-1.192 2.17-2.595 4.318-4.19l-2.386-3.212zm-5.26 5.182a21.406 21.406 0 00-2.541 5.08l3.78 1.309a17.405 17.405 0 012.067-4.135l-3.305-2.254zm-.651 7.735h33.984v-4H19.488v4zm31.984-2V111h4V99.384h-4zm2 9.616H3.936v4h49.536v-4z" fill="#393186"/></svg>