<svg width="18" height="24" fill="none" xmlns="http://www.w3.org/2000/svg"><path d="M8.906 15.563a.469.469 0 100 .937.469.469 0 000-.938z" fill="#393186"/><path d="M2.813 17.86v3.328h-.47c-.775 0-1.405.63-1.405 1.406v.468h-.47a.469.469 0 100 .938h16.876a.469.469 0 100-.938h-.469v-.468c0-.776-.63-1.407-1.406-1.407H15V17.86A7.095 7.095 0 0011.917 12 7.11 7.11 0 0015 6.142V2.812h.469c.775 0 1.406-.63 1.406-1.406V.938h.469a.469.469 0 100-.938H.469a.469.469 0 100 .938h.469v.468c0 .776.63 1.407 1.406 1.407h.469V6.14A7.095 7.095 0 005.894 12a7.11 7.11 0 00-3.082 5.858zm12.656 4.265a.47.47 0 01.469.469v.468H1.874v-.468a.47.47 0 01.469-.469h13.125zm-9.815-.938c.141-1.032.799-1.382 2.058-2.05l1.194-.636 1.195.636c1.259.668 1.916 1.018 2.057 2.05H5.654zM2.344 1.875a.47.47 0 01-.469-.469V.938h14.063v.468a.47.47 0 01-.47.469H2.345zm4.674 10.539a.469.469 0 000-.828A6.161 6.161 0 013.75 6.141V2.812h10.313v3.329a6.172 6.172 0 01-3.268 5.445.469.469 0 000 .828 6.161 6.161 0 013.268 5.445v3.328H13.1c-.17-1.608-1.238-2.176-2.56-2.878l-1.414-.753a.468.468 0 00-.441 0l-1.414.753c-1.323.702-2.39 1.27-2.56 2.878H3.75V17.86a6.172 6.172 0 013.268-5.445z" fill="#393186"/><path d="M8.438 11.28v2.876a.469.469 0 10.937 0v-2.875l.98-.522a5.222 5.222 0 002.764-4.361c.01-.21-.12-.4-.32-.467l-1.549-.518a2.601 2.601 0 00-.828-.135c-.697 0-1.354.272-1.847.766a1.666 1.666 0 01-1.715.404L5.31 5.93a.469.469 0 00-.616.467 5.222 5.222 0 002.764 4.362l.98.522zM5.721 7.057l.84.281a2.6 2.6 0 002.676-.63 1.664 1.664 0 011.715-.405l1.198.4a4.251 4.251 0 01-2.238 3.23l-1.007.536L7.9 9.931a4.25 4.25 0 01-2.177-2.875z" fill="#393186"/></svg>