<svg width="18" height="25" fill="none" xmlns="http://www.w3.org/2000/svg"><path d="M8.692.001C3.899.001 0 3.901 0 8.694c0 5.948 7.778 14.68 8.11 15.05a.783.783 0 001.164 0c.331-.37 8.11-9.102 8.11-15.05C17.384 3.9 13.484 0 8.692 0zm0 22.02c-2.618-3.11-7.127-9.245-7.127-13.327 0-3.93 3.197-7.127 7.127-7.127 3.93 0 7.127 3.197 7.127 7.127 0 4.082-4.509 10.217-7.127 13.327z" fill="#A3C359"/><path d="M8.692 4.32a4.378 4.378 0 00-4.373 4.373 4.378 4.378 0 004.373 4.373 4.378 4.378 0 004.373-4.373A4.378 4.378 0 008.692 4.32zm0 7.18a2.81 2.81 0 01-2.808-2.807 2.81 2.81 0 012.808-2.808A2.81 2.81 0 0111.5 8.693a2.81 2.81 0 01-2.808 2.808z" fill="#A3C359"/></svg>