<svg width="72" height="66" fill="none" xmlns="http://www.w3.org/2000/svg"><path d="M6 33C6 14.775 20.775 0 39 0s33 14.775 33 33-14.775 33-33 33S6 51.225 6 33z" fill="#A3C359"/><path d="M26.71 13.421a.878.878 0 00-.386-.644C17.326 6.98 6.926 17.39 12.72 26.38a.878.878 0 001.352.133l12.384-12.384a.878.878 0 00.253-.707zm-13.07 11.04c-3.306-6.862 3.906-14.07 10.765-10.765L13.64 24.461zM29.05 15.504a.878.878 0 00-1.35-.133L15.314 27.755c-.39.37-.321 1.064.133 1.351 8.998 5.797 19.398-4.611 13.603-13.602zm-8.164 13.494a8.006 8.006 0 01-3.52-.81l10.766-10.766c2.63 5.232-1.385 11.648-7.246 11.576z" fill="#393186"/><path d="M58.354 27.059h-2.016c-1.163.04-1.162 1.717 0 1.757h1.85V44.04H33.71V28.816h18.495c1.163-.04 1.162-1.717 0-1.757H40.88C46.656 7.793 24.58-7.762 8.406 4.171a.879.879 0 001.05 1.408C24.514-5.503 44.89 9.31 39.036 27.06h-5.49c-.39 0-.746.14-1.023.373 4.982-8.681-1.571-19.916-11.637-19.817-7.348 0-13.327 5.978-13.327 13.326.112 13.244 17.184 18.221 24.435 7.357-.026.113-.04.23-.04.352v7.917C13.034 49.201-8.06 25.65 6.569 8.229a.878.878 0 10-1.313-1.167C-5.61 19.102 1.367 38.742 17.08 41.498v10.754c.04 1.163 1.717 1.162 1.757 0V41.745c1.738.172 3.55.12 5.27-.145v16.643h-5.27v-1.919c-.04-1.163-1.717-1.162-1.757 0v2.797c0 .486.393.879.878.879h7.027a.878.878 0 00.878-.879v-17.87a20.674 20.674 0 006.091-2.573v5.529c0 .877.714 1.59 1.591 1.59h9.535v13.325c0 .485.393.878.879.878h3.981a.878.878 0 00.879-.878V45.797h9.535c.877 0 1.59-.713 1.59-1.59V28.65c0-.877-.713-1.591-1.59-1.591zm-37.468 5.452c-6.38 0-11.57-5.19-11.57-11.57.636-15.349 22.507-15.344 23.14 0 0 6.38-5.19 11.57-11.57 11.57zm26.176 25.732h-2.225V45.797h2.225v12.446z" fill="#393186"/><path d="M50.56 33.077l-4.75 5.704-3.915-2.95a.878.878 0 10-1.057 1.402l4.583 3.454a.878.878 0 001.203-.14l5.285-6.346a.878.878 0 10-1.35-1.124z" fill="#393186"/></svg>