<svg width="72" height="66" fill="none" xmlns="http://www.w3.org/2000/svg"><path d="M6 33C6 14.775 20.775 0 39 0s33 14.775 33 33-14.775 33-33 33S6 51.225 6 33z" fill="#A3C359"/><path d="M7.22 8.343v1.44a9.883 9.883 0 009.872 9.872h6.664l-.03 10.263-.037-.049a8.196 8.196 0 00-14.51 2.93 9.755 9.755 0 00.93 7.114 8.252 8.252 0 00-3.484 2.553 12.341 12.341 0 00-2.695 7.681v1.768l-1.146 6.88A1.035 1.035 0 003.804 60h18.573c.16 0 .319-.037.463-.11l2.255-1.127 10.377-3.459c.18-.06.34-.168.463-.313l11.543-13.642a4.736 4.736 0 00-3.614-7.794 5.229 5.229 0 00-3.47 1.305 9.788 9.788 0 00-.285-2.06 8.193 8.193 0 00-14.314-3.177l.042-14.106h7.176A10.707 10.707 0 0043.708 4.823V3.249a1.035 1.035 0 00-1.035-1.035h-8.315a10.712 10.712 0 00-10.573 9.087 9.864 9.864 0 00-7.925-3.992H8.254a1.034 1.034 0 00-1.035 1.034zm36.644 27.281a2.665 2.665 0 012.035 4.388L34.543 53.433l-10.172 3.39a1.054 1.054 0 00-.136.057l-2.102 1.051H5.026l.96-5.76a1.04 1.04 0 00.014-.17v-1.853a10.264 10.264 0 012.241-6.39 6.18 6.18 0 014.85-2.33h12.768a2.446 2.446 0 012.277 3.389 2.446 2.446 0 01-2.277 1.507h-5.804c-.204 0-.404.06-.574.173l-3.221 2.148h-3.17a1.035 1.035 0 000 2.069h3.483c.204 0 .403-.06.573-.174l3.222-2.148h5.49a4.522 4.522 0 004.5-4.925l6.275-2.092c.152-.051.29-.136.404-.25l4.564-4.564a3.178 3.178 0 012.263-.937zm-16.61-4.513a6.127 6.127 0 0110.848 2.19 7.73 7.73 0 01-.03 3.865l-2.325 2.324-6.045 2.015a4.519 4.519 0 00-3.843-2.146H13.09c-.291.001-.583.017-.873.047a7.695 7.695 0 01-1.03-6.104 6.127 6.127 0 0110.846-2.19l1.783 2.376a1.035 1.035 0 00.828.414l.05-.003c.016-.001.036.003.054.003h.003a1.035 1.035 0 001.005-.794l1.498-1.997zM25.733 12.91a8.636 8.636 0 018.626-8.626h7.28v.54a8.636 8.636 0 01-8.626 8.625h-7.28v-.539zM9.288 9.378h6.572a7.812 7.812 0 017.804 7.803v.405h-6.572a7.812 7.812 0 01-7.804-7.803v-.405zM4.116 3.103A1.035 1.035 0 005.151 2.07V1.034a1.034 1.034 0 00-2.07 0V2.07a1.034 1.034 0 001.035 1.034zM1.013 5.172h1.034a1.035 1.035 0 000-2.069h-.99a1.035 1.035 0 10-.044 2.07zM6.185 5.172h1.034a1.035 1.035 0 000-2.068H6.185a1.034 1.034 0 100 2.068zM5.15 7.242V6.207a1.035 1.035 0 00-2.068 0v1.035a1.034 1.034 0 002.069 0z" fill="#393186"/><path d="M38.254 18.62a1.034 1.034 0 10-2.07 0v1.035a1.034 1.034 0 102.07 0v-1.034zM35.15 20.69h-.99a1.037 1.037 0 00-.986 1.41 1.035 1.035 0 00.942.659h1.034a1.034 1.034 0 100-2.07zM39.288 22.758h1.035a1.035 1.035 0 000-2.069h-1.035a1.034 1.034 0 100 2.07zM37.22 25.862a1.034 1.034 0 001.034-1.035v-1.034a1.034 1.034 0 10-2.07 0v1.034a1.035 1.035 0 001.035 1.035zM15.412 32.178a1.035 1.035 0 00-1.388.463 5.688 5.688 0 000 5.063 1.035 1.035 0 101.85-.925 3.61 3.61 0 010-3.213 1.034 1.034 0 00-.462-1.388z" fill="#393186"/></svg>