<svg width="83" height="83" fill="none" xmlns="http://www.w3.org/2000/svg"><circle cx="41.5" cy="41.5" r="41.5" fill="#A3C359"/><path d="M59.246 29.137C57.395 27.055 55.146 26 52.563 26c-2.32 0-4.288.826-5.847 2.456-1.55 1.62-2.336 3.63-2.336 5.978 0 2.219.794 4.196 2.36 5.876 1.38 1.482 3.12 2.425 5.18 2.81-.361 2.73-2.775 5.202-7.19 7.355l-.794.388 3.26 6.017.735-.373C57.267 51.775 62 45.087 62 36.63c0-2.918-.926-5.439-2.754-7.492zm-11.35 25.478L46.263 51.6c4.91-2.573 7.399-5.666 7.399-9.203v-.758l-.752-.085c-2.027-.23-3.64-1.014-4.93-2.4-1.281-1.375-1.904-2.92-1.904-4.72 0-1.922.61-3.494 1.865-4.806 1.244-1.3 2.756-1.933 4.622-1.933 2.107 0 3.878.84 5.417 2.57 1.564 1.757 2.325 3.839 2.325 6.364 0 3.876-1.092 7.376-3.245 10.402-2.053 2.887-5.134 5.436-9.164 7.584zM36.266 29.134C34.393 27.053 32.135 26 29.555 26c-2.323 0-4.281.828-5.82 2.461-1.526 1.619-2.3 3.629-2.3 5.974 0 2.218.793 4.195 2.359 5.875 1.378 1.48 3.096 2.422 5.117 2.808-.356 2.732-2.749 5.205-7.128 7.359l-.783.385 3.178 6.022.743-.375c9.378-4.733 14.133-11.421 14.133-19.88 0-2.92-.938-5.442-2.788-7.495zm-11.37 25.478l-1.588-3.01c4.875-2.574 7.345-5.668 7.345-9.205v-.755l-.75-.087c-1.985-.23-3.578-1.014-4.869-2.4-1.281-1.376-1.904-2.92-1.904-4.72 0-1.925.601-3.499 1.838-4.81 1.223-1.298 2.724-1.929 4.587-1.929 2.108 0 3.892.841 5.451 2.572 1.583 1.757 2.353 3.838 2.353 6.361 0 3.876-1.097 7.375-3.259 10.4-2.063 2.887-5.157 5.435-9.204 7.583z" fill="#393186"/></svg>