<svg width="32" height="25" viewBox="0 0 32 25" fill="none" xmlns="http://www.w3.org/2000/svg">
<path d="M29.8509 2.86846C28.4049 1.25088 26.6499 0.430664 24.6347 0.430664C22.8236 0.430664 21.2882 1.07288 20.0709 2.33939C18.8613 3.5978 18.248 5.16087 18.248 6.98526C18.248 8.70933 18.8675 10.2456 20.0893 11.5516C21.1671 12.7037 22.5247 13.4365 24.132 13.7352C23.8509 15.8572 21.9671 17.7778 18.5216 19.4514L17.9012 19.7528L20.445 24.4292L21.0192 24.1394C28.3056 20.4616 32 15.2639 32 8.69072C32 6.42295 31.277 4.46413 29.8509 2.86846ZM20.9922 22.6685L19.7177 20.3258C23.5504 18.3259 25.4922 15.9219 25.4922 13.1733V12.5848L24.905 12.5186C23.3234 12.3404 22.0649 11.7303 21.0576 10.6534C20.0576 9.58437 19.5714 8.38458 19.5714 6.98526C19.5714 5.49109 20.0476 4.26952 21.0269 3.25046C21.9984 2.23968 23.1786 1.74833 24.6347 1.74833C26.2788 1.74833 27.6617 2.40131 28.8624 3.74449C30.0832 5.11045 30.6767 6.72835 30.6767 8.69065C30.6767 11.7033 29.8248 14.4232 28.1447 16.7746C26.5416 19.0183 24.1372 20.9991 20.9922 22.6685Z" fill="#BDBDBD"/>
<path d="M11.9149 2.86721C10.4528 1.25176 8.6905 0.432617 6.67681 0.432617C4.86394 0.432617 3.3355 1.07596 2.13419 2.34472C0.943188 3.60253 0.33925 5.16427 0.33925 6.98663C0.33925 8.71049 0.95875 10.2467 2.18044 11.5526C3.25594 12.7021 4.59731 13.4342 6.17469 13.7342C5.897 15.8576 4.02888 17.779 0.611 19.4527L0 19.7518L2.4805 24.4312L3.06044 24.1398C10.3798 20.4625 14.0911 15.2651 14.0911 8.69188C14.091 6.42257 13.3588 4.46287 11.9149 2.86721ZM3.04119 22.6662L1.80144 20.3273C5.60631 18.3269 7.53425 15.9226 7.53425 13.1741V12.587L6.94838 12.5196C5.39925 12.3417 4.15625 11.7315 3.14863 10.6544C2.14856 9.58551 1.6625 8.38577 1.6625 6.98663C1.6625 5.49067 2.13175 4.2679 3.09694 3.24862C4.05163 2.24036 5.22269 1.75017 6.67681 1.75017C8.3225 1.75017 9.71444 2.40402 10.9318 3.7492C12.1672 5.1143 12.7678 6.73111 12.7678 8.69188C12.7678 11.7038 11.9121 14.423 10.2244 16.774C8.61438 19.0168 6.19963 20.9971 3.04119 22.6662Z" fill="#BDBDBD"/>
</svg>
