<svg width="76" height="76" fill="none" xmlns="http://www.w3.org/2000/svg"><circle opacity=".9" cx="38" cy="38" r="38" fill="#393186"/><path d="M23.9 23.899A13.226 13.226 0 0133.313 20c3.556 0 6.899 1.385 9.413 3.9 5.191 5.191 5.191 13.637 0 18.827a13.222 13.222 0 01-9.413 3.9 13.223 13.223 0 01-9.412-3.899A13.22 13.22 0 0120 33.315c0-3.557 1.385-6.9 3.9-9.416zm2.481 16.348a9.74 9.74 0 006.932 2.873 9.74 9.74 0 006.933-2.873c3.823-3.823 3.823-10.044 0-13.867a9.741 9.741 0 00-6.933-2.872 9.742 9.742 0 00-6.933 2.872 9.744 9.744 0 00-2.872 6.935c0 2.618 1.02 5.08 2.873 6.932z" fill="#A3C359"/><path d="M28.807 31.56h2.753v-2.75a1.754 1.754 0 113.508 0v2.75l2.75.001a1.754 1.754 0 010 3.508h-2.75v2.75a1.754 1.754 0 01-3.508 0v-2.75h-2.753a1.755 1.755 0 010-3.509zM46.885 41.111l6.92 6.92a4.085 4.085 0 01-5.775 5.774l-6.915-6.915a15.738 15.738 0 005.77-5.779z" fill="#A3C359"/></svg>