<svg width="72" height="66" viewBox="0 0 72 66" fill="none" xmlns="http://www.w3.org/2000/svg">
<path d="M6 33C6 14.7746 20.7746 0 39 0C57.2254 0 72 14.7746 72 33C72 51.2254 57.2254 66 39 66C20.7746 66 6 51.2254 6 33Z" fill="#A3C359"/>
<path d="M23.7224 14H21.3096C18.9053 14 16.6455 14.936 14.9463 16.6362L3.28906 28.293C3.10156 28.4805 2.99609 28.7349 2.99609 29C2.99609 29.2651 3.10156 29.5195 3.28906 29.707L8.28906 34.707C8.67968 35.0977 9.3125 35.0977 9.70312 34.707L18.9961 25.4141V35.8311L11.0518 58.6714C10.9453 58.977 10.9932 59.3154 11.1807 59.5796C11.3691 59.8433 11.6729 60 11.9961 60H20.9961C21.4219 60 21.8008 59.7305 21.9404 59.3286L29.0518 38.8853L37.0645 59.3643C37.2148 59.7476 37.584 60 37.9961 60H46.9961C47.3262 60 47.6357 59.8369 47.8223 59.564C48.0088 59.2905 48.0479 58.9433 47.9277 58.6357L38.9961 35.8115V25.4141L48.2891 34.707C48.6797 35.0977 49.3125 35.0977 49.7031 34.707L54.7031 29.707C54.8906 29.5195 54.9961 29.2651 54.9961 29C54.9961 28.7349 54.8906 28.4805 54.7031 28.293L43.0459 16.6362C41.3467 14.936 39.0869 14 36.6826 14H34.2698C35.937 12.5328 36.9961 10.3901 36.9961 8C36.9961 3.58887 33.4072 0 28.9961 0C24.585 0 20.9961 3.58887 20.9961 8C20.9961 10.3901 22.0552 12.5328 23.7224 14ZM36.6826 16C38.5527 16 40.3096 16.728 41.6318 18.0503L52.582 29L48.9961 32.5859L38.7031 22.293C38.417 22.0068 37.9873 21.9224 37.6133 22.0762C37.2393 22.231 36.9961 22.5957 36.9961 23V36C36.9961 36.1245 37.0195 36.2481 37.0645 36.3643L45.5313 58H38.6787L29.9277 35.6357C29.7773 35.2519 29.4072 35 28.9961 35C28.9902 35 28.9834 35 28.9766 35C28.5586 35.0083 28.1895 35.2759 28.0518 35.6714L20.2852 58H13.4023L20.9404 36.3286C20.9775 36.2227 20.9961 36.1118 20.9961 36V23C20.9961 22.5957 20.7529 22.231 20.3789 22.0762C20.0049 21.9219 19.5752 22.0068 19.2891 22.293L8.99609 32.5859L5.41015 29L16.3604 18.0503C17.6826 16.728 19.4395 16 21.3096 16H36.6826ZM28.9961 2C32.3047 2 34.9961 4.69141 34.9961 8C34.9961 11.3086 32.3047 14 28.9961 14C25.6875 14 22.9961 11.3086 22.9961 8C22.9961 4.69141 25.6875 2 28.9961 2Z" fill="#393186"/>
<path d="M28.3076 30.7257C28.501 30.9088 28.748 31.0001 28.9961 31.0001C29.2441 31.0001 29.4912 30.9088 29.6846 30.7257L33.9727 26.6559C34.6328 26.0304 34.9961 25.1945 34.9961 24.3024C34.9961 23.4103 34.6328 22.5743 33.9736 21.9488C32.6484 20.693 30.4912 20.691 29.166 21.9488C29.165 21.9488 29.165 21.9488 29.165 21.9493L28.9961 22.1095L28.8262 21.9489C27.5029 20.692 25.3447 20.691 24.0195 21.9489C23.3594 22.5743 22.9961 23.4103 22.9961 24.3024C22.9961 25.1945 23.3594 26.0304 24.0186 26.6559L28.3076 30.7257ZM25.3955 23.4C25.6787 23.131 26.0508 22.9967 26.4228 22.9967C26.7949 22.9967 27.167 23.131 27.4502 23.3995L28.3076 24.2135C28.6943 24.5797 29.2978 24.5797 29.6846 24.2135L30.542 23.3995C31.1084 22.8624 32.0293 22.8629 32.5976 23.4C32.8545 23.6442 32.9961 23.9645 32.9961 24.3024C32.9961 24.6403 32.8545 24.9606 32.5967 25.2047L28.9961 28.6217L25.3945 25.2047C25.1377 24.9606 24.9961 24.6403 24.9961 24.3024C24.9961 23.9645 25.1377 23.6442 25.3955 23.4Z" fill="#393186"/>
<path d="M49.7256 9.72754C49.2363 9.22754 48.7266 8.74316 48.2119 8.28809L46.8877 9.78711C47.3662 10.21 47.8408 10.6611 48.2979 11.1269L49.7256 9.72754Z" fill="#393186"/>
<path d="M50.8105 14.0937L52.4258 12.9131C52.0146 12.3516 51.5801 11.7998 51.1328 11.2725L49.6074 12.5654C50.0234 13.0566 50.4287 13.5708 50.8105 14.0937Z" fill="#393186"/>
<path d="M43.1113 4.67041C42.5039 4.33105 41.8779 4.01074 41.251 3.71826L40.4053 5.53076C40.9883 5.80273 41.5713 6.10058 42.1367 6.4165L43.1113 4.67041Z" fill="#393186"/>
<path d="M52.873 17.3882L54.6406 16.4517C54.3145 15.8369 53.9639 15.228 53.5967 14.6421L51.9014 15.7036C52.2432 16.249 52.5703 16.8159 52.873 17.3882Z" fill="#393186"/>
<path d="M55.957 28.5469L57.9551 28.4404C57.917 27.7432 57.8555 27.0435 57.7695 26.3604L55.7852 26.6094C55.8652 27.2451 55.9229 27.897 55.957 28.5469Z" fill="#393186"/>
<path d="M54.4385 20.9453L56.3232 20.2734C56.0898 19.6201 55.8301 18.9668 55.5498 18.3315L53.7197 19.1392C53.9805 19.7295 54.2227 20.3374 54.4385 20.9453Z" fill="#393186"/>
<path d="M55.1084 42.6226L53.3096 41.7505C53.0293 42.3276 52.7227 42.9058 52.3984 43.4688L54.1309 44.4678C54.4795 43.8633 54.8086 43.2427 55.1084 42.6226Z" fill="#393186"/>
<path d="M56.6514 38.7451L54.7451 38.1426C54.5488 38.7617 54.3301 39.3774 54.0928 39.9717L55.9502 40.7129C56.2051 40.0728 56.4414 39.4106 56.6514 38.7451Z" fill="#393186"/>
<path d="M53.0225 46.2373L51.3662 45.1162C51.0068 45.6475 50.6211 46.1753 50.2188 46.6856L51.7891 47.9238C52.2217 47.3755 52.6367 46.8081 53.0225 46.2373Z" fill="#393186"/>
<path d="M47.5996 49.5601L48.9785 51.0093C49.4795 50.5327 49.9707 50.0308 50.4395 49.5171L48.9609 48.1694C48.5254 48.648 48.0674 49.1157 47.5996 49.5601Z" fill="#393186"/>
<path d="M55.4746 24.6894L57.4355 24.2988C57.2998 23.6143 57.1367 22.9302 56.9531 22.2651L55.0254 22.7993C55.1963 23.417 55.3476 24.0527 55.4746 24.6894Z" fill="#393186"/>
<path d="M57.6191 34.6855L55.6445 34.3643C55.541 35.0015 55.4131 35.6426 55.2646 36.27L57.21 36.7319C57.3701 36.0581 57.5078 35.3696 57.6191 34.6855Z" fill="#393186"/>
<path d="M57.9912 30.5273L55.9912 30.4932C55.9805 31.1387 55.9453 31.7915 55.8877 32.4336L57.8799 32.6123C57.9414 31.9224 57.9795 31.2212 57.9912 30.5273Z" fill="#393186"/>
<path d="M46.6006 6.96191C46.0537 6.54296 45.4805 6.13623 44.8975 5.75293L43.7998 7.4248C44.3428 7.78125 44.876 8.16015 45.3857 8.5498L46.6006 6.96191Z" fill="#393186"/>
<path d="M2.10156 32.4009C2.04492 31.7622 2.01074 31.1084 2 30.4575L0 30.4917C0.0127 31.1899 0.04883 31.8911 0.10938 32.5767L2.10156 32.4009Z" fill="#393186"/>
<path d="M2.21091 26.5757L0.226532 26.3237C0.140592 27.0064 0.077122 27.7061 0.039032 28.4033L2.03512 28.5127C2.07127 27.8628 2.12986 27.2109 2.21091 26.5757Z" fill="#393186"/>
<path d="M2.97656 22.7651L1.04883 22.231C0.865237 22.894 0.702147 23.5771 0.563477 24.2617L2.52442 24.6572C2.65332 24.019 2.80468 23.3828 2.97656 22.7651Z" fill="#393186"/>
<path d="M17.6182 5.5166L16.7744 3.70312C16.1436 3.9961 15.5176 4.31542 14.9131 4.65234L15.8857 6.39942C16.4482 6.08644 17.0313 5.78955 17.6182 5.5166Z" fill="#393186"/>
<path d="M6.10937 15.6748L4.41406 14.6123C4.0459 15.2007 3.69336 15.8086 3.36914 16.4199L5.13476 17.3584C5.4375 16.7895 5.76562 16.2231 6.10937 15.6748Z" fill="#393186"/>
<path d="M4.28515 19.1064L2.45507 18.2993C2.17187 18.9424 1.91112 19.5952 1.68163 20.2397L3.56444 20.9116C3.77832 20.313 4.0205 19.7056 4.28515 19.1064Z" fill="#393186"/>
<path d="M11.1299 9.76416L9.80567 8.26514C9.28223 8.72754 8.77344 9.21094 8.29102 9.70264L9.71875 11.103C10.168 10.6455 10.6426 10.1948 11.1299 9.76416Z" fill="#393186"/>
<path d="M10.3769 49.5464C9.90233 49.0933 9.4453 48.625 9.01756 48.1543L7.53709 49.499C7.99705 50.0049 8.48729 50.5073 8.99607 50.9927L10.3769 49.5464Z" fill="#393186"/>
<path d="M8.40625 12.54L6.88281 11.2441C6.43261 11.773 5.99707 12.3247 5.58789 12.8838L7.20117 14.0654C7.58203 13.5454 7.9873 13.0322 8.40625 12.54Z" fill="#393186"/>
<path d="M3.88963 39.9482C3.65135 39.3472 3.43162 38.7305 3.23826 38.1152L1.33006 38.7168C1.53904 39.3774 1.7744 40.04 2.03026 40.6855L3.88963 39.9482Z" fill="#393186"/>
<path d="M14.2217 7.40674L13.126 5.73291C12.5498 6.10986 11.9766 6.51611 11.4209 6.93896L12.6338 8.52978C13.1504 8.13525 13.6846 7.75732 14.2217 7.40674Z" fill="#393186"/>
<path d="M0.367188 34.6499C0.476567 35.332 0.614258 36.022 0.775388 36.7007L2.7207 36.2397C2.57129 35.6079 2.44336 34.9663 2.34179 34.3325L0.367188 34.6499Z" fill="#393186"/>
<path d="M5.58203 43.4482C5.26172 42.8916 4.95605 42.313 4.67285 41.728L2.87207 42.6001C3.17676 43.2275 3.50488 43.8486 3.84961 44.4463L5.58203 43.4482Z" fill="#393186"/>
<path d="M7.75878 46.6675C7.3623 46.1641 6.97656 45.6362 6.61231 45.0977L4.95605 46.2178C5.34667 46.7964 5.76172 47.3643 6.18848 47.9058L7.75878 46.6675Z" fill="#393186"/>
<path d="M30.0381 58.981C30.7343 58.9556 31.4355 58.9048 32.123 58.8296L31.9043 56.8413C31.2656 56.9116 30.6132 56.9585 29.9658 56.9819L30.0381 58.981Z" fill="#393186"/>
<path d="M27.9473 58.9814L28.0215 56.9824C27.3779 56.959 26.7246 56.9116 26.0811 56.8413L25.8643 58.8296C26.5557 58.9048 27.2568 58.956 27.9473 58.9814Z" fill="#393186"/>
</svg>
