<svg width="72" height="66" fill="none" xmlns="http://www.w3.org/2000/svg"><path d="M6 33C6 14.775 20.775 0 39 0s33 14.775 33 33-14.775 33-33 33S6 51.225 6 33Z" fill="#A3C359"/><path d="m59.735 15.869-.012-.013c-.517-.466-1.31-.466-1.801.026a1.254 1.254 0 0 0 0 1.775 5.29 5.29 0 0 1-7.481 7.482.221.221 0 0 0-.063-.05 23.344 23.344 0 0 0-7.091-6.512c2.884-6.801-.302-14.648-7.103-17.52-6.801-2.87-14.647.303-17.52 7.104a13.687 13.687 0 0 0-1.032 4.358c-1.335-.378-2.405-.554-3.237-.53-1.335.013-2.317.845-2.468 2.066-.088.542-.025 1.335.264 3.917l.265 2.469c-2.418 1.965-4.32 4.257-5.693 6.826l-3.652.718A3.882 3.882 0 0 0 0 31.788v8.098a3.872 3.872 0 0 0 3.11 3.804l3.666.73a20.11 20.11 0 0 0 2.632 3.943c-1.36 3.375-.353 7.241 2.469 9.546A9.343 9.343 0 0 0 17.808 60a9.73 9.73 0 0 0 6.625-2.606l.882-.831c3.25.49 6.574.377 9.786-.303l1.246 1.197a9.192 9.192 0 0 0 6.386 2.506h.302a9.357 9.357 0 0 0 6.524-2.884c2.645-2.796 2.96-7.003.87-10.302 2.367-3.3 3.614-7.078 3.614-10.983v-.995c-.114-1.876-.605-3.816-1.461-5.78a7.77 7.77 0 0 0 7.14-2.116 7.81 7.81 0 0 0 .013-11.033ZM30.982 2.506c5.983-.012 10.844 4.824 10.857 10.806a10.812 10.812 0 0 1-4.799 9.018c-.1.076-.201.227-.277.227H25.252c-.05 0-.113-.076-.176-.126a10.873 10.873 0 0 1-4.925-8.325c-.025-.29-.025-.542-.025-.768.012-5.97 4.861-10.82 10.856-10.832Zm17.003 43.338c-.214.252-.542.83-.151 1.612.037.075.075.138.126.201 1.826 2.38 1.725 5.605-.24 7.683-1.247 1.297-2.934 2.103-4.76 2.103h-.24a6.702 6.702 0 0 1-4.647-1.813l-1.637-1.562a1.492 1.492 0 0 0-1.36-.378 24.832 24.832 0 0 1-9.875.315c-.075-.013-.138-.013-.214-.013a1.471 1.471 0 0 0-1.07.416l-1.234 1.171a7.193 7.193 0 0 1-4.597 1.914 6.897 6.897 0 0 1-4.648-1.498 5.828 5.828 0 0 1-1.536-7.078c.189-.315.239-.706.138-1.07a1.266 1.266 0 0 0-.302-.593 18.305 18.305 0 0 1-2.947-4.357 1.278 1.278 0 0 0-.24-.34 1.583 1.583 0 0 0-.894-.492l-4.055-.818a1.362 1.362 0 0 1-1.083-1.335v-8.124a1.338 1.338 0 0 1 1.083-1.335l4.068-.818c.34-.063.655-.227.894-.492.101-.1.177-.201.24-.327 1.284-2.57 3.198-4.861 5.68-6.776.037-.037.075-.063.113-.1.29-.29.44-.68.428-1.084 0-.05 0-.088-.012-.138l-.328-3.023c-.113-.97-.302-2.72-.277-3.199h.05c.504-.012 1.474.076 3.262.655a13.25 13.25 0 0 0 3.59 7.418h-1.197c-.692 0-1.26.567-1.26 1.26 0 .692.568 1.26 1.26 1.26H41.94c.693 0 1.26-.568 1.26-1.26 0-.693-.567-1.26-1.26-1.26h-1.31a10.052 10.052 0 0 0 1.462-1.8c2.909 1.762 5.302 4.13 6.952 6.85l.894 1.726c.92 1.902 1.448 3.829 1.574 5.592v.869c0 3.59-1.222 7.053-3.526 10.038Z" fill="#393186"/><path d="M17.443 29.496a3.222 3.222 0 0 0-3.224 3.224 3.222 3.222 0 0 0 3.224 3.224 3.23 3.23 0 0 0 3.224-3.224c.013-1.775-1.435-3.224-3.224-3.224Zm0 3.942a.704.704 0 1 1 0-1.41c.39 0 .706.314.706.705a.689.689 0 0 1-.706.705ZM30.982 5.705a7.627 7.627 0 0 0-7.632 7.632 7.66 7.66 0 0 0 7.632 7.633 7.627 7.627 0 0 0 7.633-7.633 7.627 7.627 0 0 0-7.633-7.632Zm0 12.746a5.117 5.117 0 0 1-5.113-5.114 5.117 5.117 0 0 1 5.113-5.113 5.117 5.117 0 0 1 5.114 5.113 5.117 5.117 0 0 1-5.114 5.114Z" fill="#393186"/></svg>