<svg width="72" height="66" fill="none" xmlns="http://www.w3.org/2000/svg"><path d="M6 33C6 14.775 20.775 0 39 0s33 14.775 33 33-14.775 33-33 33S6 51.225 6 33Z" fill="#A3C359"/><path d="M30.03 31a1 1 0 0 1-1-1V15a1 1 0 0 1 2 0v15a1 1 0 0 1-1 1ZM48.458 39.375h-4.69a.876.876 0 0 0-.876.876v6.629h-1a.876.876 0 1 0 0 1.751h1v2h-1a.876.876 0 1 0 0 1.752h1v1.939a.876.876 0 0 0 1.751 0v-1.939h3.815a.876.876 0 0 0 0-1.751h-3.815v-2h3.815a4.633 4.633 0 0 0 4.628-4.629c0-2.615-2.13-4.628-4.628-4.628Zm0 7.505h-3.815v-5.753h3.815a2.874 2.874 0 0 1 2.876 2.876 2.88 2.88 0 0 1-2.876 2.877Z" fill="#393186"/><path d="M23.03 38a.999.999 0 0 1-.707-1.707l7-7a.999.999 0 1 1 1.414 1.414l-7 7a.997.997 0 0 1-.707.293ZM30 12a1 1 0 0 1-1-1V9a1 1 0 0 1 2 0v2a1 1 0 0 1-1 1ZM30 52a1 1 0 0 1-1-1v-2a1 1 0 0 1 2 0v2a1 1 0 0 1-1 1ZM51 31h-2a1 1 0 0 1 0-2h2a1 1 0 0 1 0 2ZM11 31H9a1 1 0 0 1 0-2h2a1 1 0 0 1 0 2ZM43.435 17.565a.999.999 0 0 1-.707-1.707l1.414-1.414a.999.999 0 1 1 1.414 1.414l-1.414 1.414a.997.997 0 0 1-.707.293ZM15.151 45.849a.999.999 0 0 1-.707-1.707l1.414-1.414a.999.999 0 1 1 1.414 1.414l-1.414 1.414a.997.997 0 0 1-.707.293ZM16.565 17.565a.997.997 0 0 1-.707-.293l-1.414-1.414a.999.999 0 1 1 1.414-1.414l1.414 1.414a.999.999 0 0 1-.707 1.707ZM47 60c-7.168 0-13-5.832-13-13s5.832-13 13-13 13 5.832 13 13-5.832 13-13 13Zm0-24c-6.065 0-11 4.935-11 11s4.935 11 11 11 11-4.935 11-11-4.935-11-11-11Z" fill="#393186"/><path d="M30 60C13.458 60 0 46.542 0 30S13.458 0 30 0s30 13.458 30 30c0 3.715-.679 7.354-2.018 10.815a1 1 0 0 1-1.77.186 10.972 10.972 0 0 0-9.212-5c-6.065 0-11 4.935-11 11a10.97 10.97 0 0 0 5.001 9.212 1.001 1.001 0 0 1-.186 1.77A29.879 29.879 0 0 1 30 60Zm0-58C14.561 2 2 14.561 2 30s12.561 28 28 28c2.858 0 5.667-.43 8.375-1.281A12.95 12.95 0 0 1 34 47c0-7.168 5.832-13 13-13 3.756 0 7.269 1.606 9.719 4.375A27.859 27.859 0 0 0 58 30C58 14.561 45.439 2 30 2Z" fill="#393186"/><path d="M30 56C15.664 56 4 44.336 4 30S15.664 4 30 4s26 11.664 26 26c0 2.545-.373 5.071-1.109 7.506a1 1 0 0 1-1.536.526A10.926 10.926 0 0 0 47 36c-6.065 0-11 4.935-11 11 0 2.285.703 4.482 2.032 6.354a1 1 0 0 1-.526 1.536A25.893 25.893 0 0 1 30 56Zm0-50C16.766 6 6 16.767 6 30s10.766 24 24 24c1.907 0 3.801-.227 5.65-.676A12.88 12.88 0 0 1 34 47c0-7.168 5.832-13 13-13 2.232 0 4.393.567 6.324 1.649.449-1.848.676-3.742.676-5.649C54 16.767 43.234 6 30 6Z" fill="#393186"/></svg>