<svg width="72" height="66" fill="none" xmlns="http://www.w3.org/2000/svg"><path d="M6 33C6 14.775 20.775 0 39 0s33 14.775 33 33-14.775 33-33 33S6 51.225 6 33Z" fill="#A3C359"/><path d="M54.828 4.138h-3.104V1.034C51.724.455 51.27 0 50.69 0c-.58 0-1.035.455-1.035 1.034v3.104H41.38V1.034C41.38.455 40.924 0 40.345 0c-.58 0-1.035.455-1.035 1.034v3.104h-8.276V1.034C31.035.455 30.58 0 30 0c-.58 0-1.035.455-1.035 1.034v3.104H20.69V1.034C20.69.455 20.234 0 19.655 0c-.58 0-1.034.455-1.034 1.034v3.104h-8.276V1.034C10.345.455 9.89 0 9.31 0c-.579 0-1.034.455-1.034 1.034v3.104H5.172C2.317 4.138 0 6.476 0 9.31v45.518A5.174 5.174 0 0 0 5.172 60h49.656A5.174 5.174 0 0 0 60 54.828V9.31c0-2.834-2.317-5.172-5.172-5.172ZM5.172 6.207h3.104V9.31c0 .58.455 1.035 1.034 1.035.58 0 1.035-.455 1.035-1.035V6.207h8.276V9.31c0 .58.455 1.035 1.034 1.035.58 0 1.035-.455 1.035-1.035V6.207h8.275V9.31c0 .58.456 1.035 1.035 1.035.58 0 1.035-.455 1.035-1.035V6.207h8.275V9.31c0 .58.456 1.035 1.035 1.035.58 0 1.034-.455 1.034-1.035V6.207h8.276V9.31c0 .58.455 1.035 1.035 1.035.579 0 1.034-.455 1.034-1.035V6.207h3.104A3.1 3.1 0 0 1 57.93 9.31v9.31H2.069V9.31a3.113 3.113 0 0 1 3.103-3.103ZM54.828 57.93H5.172a3.1 3.1 0 0 1-3.103-3.103V20.69h55.862v34.138a3.1 3.1 0 0 1-3.103 3.103Z" fill="#393186"/><path d="M20.69 51.724c3.413 0 6.206-2.793 6.206-6.207V31.034c0-3.414-2.793-6.207-6.206-6.207-3.414 0-6.207 2.793-6.207 6.207v14.483a6.212 6.212 0 0 0 6.207 6.207Zm-4.138-20.69a4.15 4.15 0 0 1 4.138-4.138 4.15 4.15 0 0 1 4.138 4.138v14.483a4.15 4.15 0 0 1-4.138 4.138 4.15 4.15 0 0 1-4.138-4.138V31.034ZM34.138 49.655c-.58 0-1.035.455-1.035 1.034 0 .58.456 1.035 1.035 1.035h10.345c.58 0 1.034-.455 1.034-1.035 0-.579-.455-1.034-1.034-1.034h-3.104V25.862c0-.062 0-.145-.02-.207 0-.02-.021-.062-.021-.083 0-.041-.02-.062-.041-.103-.021-.042-.042-.062-.063-.104-.02-.02-.02-.062-.04-.082a1.283 1.283 0 0 0-.29-.29c-.021-.02-.063-.02-.083-.041-.042-.021-.062-.042-.104-.063-.041-.02-.062-.02-.103-.041-.02 0-.062-.02-.083-.02-.062-.021-.124-.021-.186-.021s-.124 0-.186.02c-.042 0-.062.021-.083.021-.041 0-.062.02-.104.041-.041.021-.062.042-.103.063-.02.02-.062.02-.083.04-.062.042-.103.084-.165.125l-6.207 6.207a1.024 1.024 0 0 0 0 1.469c.207.207.476.31.724.31s.538-.103.724-.31l4.448-4.448v21.31h-5.172ZM54.828 54.31H5.172a.512.512 0 0 0-.517.518c0 .29.228.517.517.517h49.656c.29 0 .517-.228.517-.517a.512.512 0 0 0-.517-.518Z" fill="#393186"/><path d="M18.62 31.034c0-1.138.932-2.069 2.07-2.069.29 0 .517-.227.517-.517a.512.512 0 0 0-.517-.517 3.1 3.1 0 0 0-3.104 3.103c0 .29.228.517.517.517.29 0 .518-.227.518-.517ZM5.172 16.035h49.656c.29 0 .517-.228.517-.518a.512.512 0 0 0-.517-.517H5.172a.512.512 0 0 0-.517.517c0 .29.228.518.517.518Z" fill="#393186"/></svg>