<svg width="60" height="60" viewBox="0 0 60 60" fill="none" xmlns="http://www.w3.org/2000/svg">
<path d="M58.354 27.059H56.3381C55.175 27.0993 55.176 28.7759 56.3381 28.8157H58.1879V44.0405H33.7112V28.8157H52.2061C53.3692 28.7754 53.3682 27.0988 52.2061 27.059H40.8801C46.6557 7.79328 24.58 -7.76197 8.4059 4.17072C8.01696 4.4607 7.93662 5.01101 8.22648 5.39995C8.51645 5.78888 9.06665 5.86899 9.4557 5.57936C24.5138 -5.50343 44.8905 9.31001 39.0352 27.0591H33.5451C33.1563 27.0591 32.7996 27.1994 32.523 27.4319C37.5048 18.7509 30.9519 7.5156 20.886 7.6148C13.5377 7.61468 7.55928 13.593 7.55928 20.9414C7.67066 34.1853 24.7428 39.162 31.9937 28.2979C31.9681 28.411 31.9545 28.5288 31.9545 28.6497V36.567C13.0325 49.2007 -8.05991 25.6497 6.56792 8.22906C6.8901 7.86647 6.85742 7.31124 6.49472 6.98906C6.1319 6.66676 5.57679 6.69955 5.25472 7.06226C-5.61013 19.1011 1.36738 38.7427 17.0799 41.4977V52.2524C17.1202 53.4154 18.7967 53.4145 18.8366 52.2524V41.7452C20.5746 41.9165 22.3871 41.8659 24.1067 41.6V58.2432H18.8366V56.3243C18.7963 55.1612 17.1198 55.1622 17.0799 56.3243V59.1215C17.0799 59.6066 17.4732 59.9999 17.9583 59.9999H24.9851C25.4701 59.9999 25.8634 59.6066 25.8634 59.1215V41.2517C28.0112 40.7285 30.0613 39.8642 31.9545 38.6783V44.2067C31.9545 45.0837 32.6681 45.7973 33.5451 45.7973H43.0803V59.1216C43.0803 59.6067 43.4734 60 43.9586 60H47.9405C48.4257 60 48.8188 59.6067 48.8188 59.1216V45.7972H58.354C59.231 45.7972 59.9446 45.0836 59.9446 44.2065V28.6497C59.9446 27.7726 59.231 27.059 58.354 27.059ZM20.8861 32.5115C14.5063 32.5115 9.31598 27.3211 9.31598 20.9414C9.95156 5.59213 31.823 5.59658 32.4562 20.9415C32.4562 27.3211 27.2658 32.5115 20.8861 32.5115ZM47.0621 58.2432H44.837V45.7972H47.0621V58.2432Z" fill="#393186"/>
</svg>
