<svg width="72" height="66" viewBox="0 0 72 66" fill="none" xmlns="http://www.w3.org/2000/svg">
<path d="M6 33C6 14.7746 20.7746 0 39 0C57.2254 0 72 14.7746 72 33C72 51.2254 57.2254 66 39 66C20.7746 66 6 51.2254 6 33Z" fill="#A3C359"/>
<path d="M7.21944 8.34315V9.78289C7.22238 12.4003 8.26345 14.9097 10.1143 16.7605C11.9651 18.6113 14.4745 19.6524 17.0919 19.6553H23.7558L23.7256 29.9179L23.689 29.8692C22.7595 28.6298 21.4977 27.6792 20.0499 27.1276C18.6022 26.576 17.0277 26.446 15.5091 26.7527C13.9905 27.0594 12.5899 27.7901 11.4696 28.8603C10.3493 29.9305 9.5553 31.2962 9.17952 32.7992C8.57437 35.2026 8.90669 37.7462 10.109 39.9134C8.74146 40.4399 7.53879 41.3211 6.62461 42.4663C4.88366 44.6483 3.93386 47.356 3.9303 50.1474V51.9153L2.78409 58.7956C2.75939 58.9439 2.76728 59.0956 2.80719 59.2405C2.8471 59.3853 2.91809 59.5198 3.01521 59.6344C3.11234 59.749 3.23327 59.8411 3.36959 59.9043C3.50591 59.9675 3.65436 60.0002 3.80461 60.0002H22.3768C22.5374 60.0002 22.6958 59.9628 22.8395 59.8909L25.0952 58.7631L35.4723 55.304C35.6524 55.244 35.8124 55.1357 35.935 54.9908L47.4784 41.3486C48.0616 40.6592 48.4356 39.8175 48.5562 38.9226C48.6768 38.0277 48.539 37.1169 48.1591 36.2978C47.7791 35.4786 47.1729 34.7852 46.4118 34.2992C45.6508 33.8132 44.7666 33.555 43.8637 33.5549C42.5868 33.5517 41.353 34.0158 40.3948 34.8597C40.3729 34.1646 40.277 33.4738 40.1087 32.7991C39.74 31.3219 38.9669 29.9767 37.8763 28.9144C36.7857 27.8521 35.4206 27.1147 33.9342 26.7849C32.4479 26.4551 30.899 26.5459 29.4615 27.0473C28.0239 27.5487 26.7544 28.4407 25.7955 29.6232L25.8369 15.5174H33.0127C35.8481 15.5142 38.5665 14.3864 40.5715 12.3814C42.5764 10.3765 43.7042 7.65811 43.7075 4.82267V3.24884C43.7075 2.97448 43.5985 2.71135 43.4045 2.51735C43.2105 2.32335 42.9473 2.21436 42.673 2.21436H34.3583C31.8015 2.21762 29.3302 3.13538 27.3909 4.80177C25.4517 6.46815 24.1726 8.77325 23.7846 11.3005C22.8673 10.0624 21.6727 9.05639 20.2966 8.36318C18.9204 7.66997 17.401 7.30881 15.8601 7.30867H8.25392C7.97956 7.30867 7.71643 7.41765 7.52243 7.61166C7.32843 7.80566 7.21944 8.06879 7.21944 8.34315ZM43.8637 35.624C44.3721 35.624 44.87 35.7693 45.2985 36.043C45.7271 36.3166 46.0685 36.7071 46.2824 37.1683C46.4963 37.6296 46.5739 38.1424 46.5059 38.6463C46.438 39.1502 46.2273 39.6242 45.8989 40.0123L34.5427 53.433L24.3709 56.8235C24.3245 56.8391 24.2792 56.8578 24.2354 56.8797L22.1325 57.9312H5.02569L5.98581 52.1711C5.99512 52.1149 5.99979 52.058 5.99978 52.001V50.1475C6.00281 47.8257 6.79288 45.5736 8.24099 43.7588C8.82133 43.0299 9.55894 42.4417 10.3986 42.0381C11.2384 41.6345 12.1584 41.4259 13.0901 41.428H25.8586C26.1816 41.4256 26.5018 41.4872 26.8008 41.6092C27.0999 41.7311 27.3718 41.9111 27.601 42.1386C27.8302 42.3661 28.0121 42.6367 28.1362 42.9349C28.2603 43.233 28.3242 43.5528 28.3242 43.8758C28.3242 44.1987 28.2603 44.5185 28.1362 44.8166C28.0121 45.1148 27.8302 45.3854 27.601 45.6129C27.3718 45.8405 27.0999 46.0204 26.8008 46.1423C26.5018 46.2643 26.1816 46.3259 25.8586 46.3235H20.0553C19.851 46.3236 19.6514 46.384 19.4814 46.4973L16.2598 48.645H13.0901C12.8158 48.645 12.5526 48.754 12.3586 48.948C12.1646 49.142 12.0556 49.4052 12.0556 49.6795C12.0556 49.9539 12.1646 50.217 12.3586 50.411C12.5526 50.605 12.8158 50.714 13.0901 50.714H16.5725C16.7767 50.714 16.9763 50.6535 17.1462 50.5402L20.368 48.3925H25.8586C27.0561 48.3911 28.2042 47.9148 29.051 47.068C29.8977 46.2213 30.3741 45.0732 30.3754 43.8757C30.3754 43.7378 30.3693 43.6014 30.3572 43.4667L36.6328 41.3748C36.7851 41.324 36.9236 41.2385 37.0371 41.1249L41.6007 36.5611C41.8972 36.263 42.2499 36.0267 42.6383 35.8659C43.0268 35.705 43.4432 35.6228 43.8637 35.624ZM27.2545 31.1111C27.9494 30.1845 28.8927 29.4738 29.9751 29.0615C31.0574 28.6491 32.2344 28.5519 33.3697 28.7812C34.5051 29.0105 35.5521 29.5568 36.3896 30.3568C37.2271 31.1569 37.8207 32.1779 38.1016 33.3016C38.4188 34.5715 38.4083 35.9012 38.0711 37.1659L35.7472 39.4897L29.702 41.5048C29.2974 40.8493 28.732 40.3081 28.0594 39.9326C27.3868 39.5571 26.6294 39.3599 25.8591 39.3595H13.0901C12.7986 39.36 12.5072 39.3757 12.2173 39.4065C11.632 38.5158 11.2381 37.5132 11.0606 36.4623C10.8831 35.4114 10.9259 34.3351 11.1862 33.3016C11.467 32.1779 12.0606 31.1569 12.8981 30.3568C13.7356 29.5568 14.7827 29.0105 15.918 28.7812C17.0533 28.5519 18.2303 28.6491 19.3127 29.0615C20.395 29.4738 21.3383 30.1845 22.0332 31.1111L23.816 33.4881C23.9124 33.6165 24.0373 33.7208 24.181 33.7926C24.3246 33.8645 24.483 33.9019 24.6436 33.9019C24.6603 33.9019 24.6767 33.8998 24.6934 33.8989C24.7101 33.898 24.7295 33.9019 24.748 33.9019H24.7511C24.9834 33.9016 25.2089 33.8232 25.3913 33.6792C25.5736 33.5352 25.7022 33.334 25.7562 33.108L27.2545 31.1111ZM25.7328 12.9091C25.7354 10.6222 26.645 8.42967 28.2621 6.81258C29.8793 5.19549 32.0718 4.28589 34.3587 4.28332H41.6389V4.82267C41.6363 7.10965 40.7266 9.30222 39.1095 10.9193C37.4923 12.5364 35.2997 13.446 33.0127 13.4485H25.7325L25.7328 12.9091ZM9.2884 9.37763H15.8605C17.9293 9.37996 19.9128 10.2028 21.3757 11.6658C22.8386 13.1287 23.6615 15.1121 23.6638 17.181V17.5864H17.0919C15.023 17.5841 13.0395 16.7612 11.5766 15.2982C10.1136 13.8353 9.29073 11.8518 9.2884 9.78289V9.37763Z" fill="#393186"/>
<path d="M4.11603 3.10345C4.39039 3.10345 4.65351 2.99446 4.84752 2.80046C5.04152 2.60645 5.15051 2.34333 5.15051 2.06897V1.03448C5.15051 0.760121 5.04152 0.496996 4.84752 0.302993C4.65351 0.10899 4.39039 0 4.11603 0C3.84166 0 3.57854 0.10899 3.38454 0.302993C3.19053 0.496996 3.08154 0.760121 3.08154 1.03448V2.06897C3.08154 2.34333 3.19053 2.60645 3.38454 2.80046C3.57854 2.99446 3.84166 3.10345 4.11603 3.10345Z" fill="#393186"/>
<path d="M1.01254 5.17223H2.04703C2.32139 5.17223 2.58451 5.06324 2.77852 4.86924C2.97252 4.67523 3.08151 4.41211 3.08151 4.13775C3.08151 3.86339 2.97252 3.60026 2.77852 3.40626C2.58451 3.21226 2.32139 3.10327 2.04703 3.10327H1.0569C0.782536 3.09738 0.517075 3.20073 0.318913 3.39058C0.12075 3.58042 0.0061196 3.84121 0.000237972 4.11557C-0.00564366 4.38993 0.0977056 4.65539 0.28755 4.85356C0.477394 5.05172 0.738182 5.16635 1.01254 5.17223Z" fill="#393186"/>
<path d="M6.185 5.17248H7.21948C7.49384 5.17248 7.75696 5.06349 7.95097 4.86949C8.14497 4.67548 8.25396 4.41236 8.25396 4.138C8.25396 3.86364 8.14497 3.60051 7.95097 3.40651C7.75696 3.21251 7.49384 3.10352 7.21948 3.10352H6.185C5.91063 3.10352 5.64751 3.21251 5.45351 3.40651C5.2595 3.60051 5.15051 3.86364 5.15051 4.138C5.15051 4.41236 5.2595 4.67548 5.45351 4.86949C5.64751 5.06349 5.91063 5.17248 6.185 5.17248Z" fill="#393186"/>
<path d="M5.15051 7.24182V6.20733C5.15051 5.93297 5.04152 5.66985 4.84752 5.47584C4.65351 5.28184 4.39039 5.17285 4.11603 5.17285C3.84166 5.17285 3.57854 5.28184 3.38454 5.47584C3.19053 5.66985 3.08154 5.93297 3.08154 6.20733V7.24182C3.08154 7.51618 3.19053 7.7793 3.38454 7.97331C3.57854 8.16731 3.84166 8.2763 4.11603 8.2763C4.39039 8.2763 4.65351 8.16731 4.84752 7.97331C5.04152 7.7793 5.15051 7.51618 5.15051 7.24182Z" fill="#393186"/>
<path d="M38.2539 18.6209C38.2539 18.3465 38.1449 18.0834 37.9509 17.8894C37.7569 17.6954 37.4938 17.5864 37.2194 17.5864C36.9451 17.5864 36.6819 17.6954 36.4879 17.8894C36.2939 18.0834 36.1849 18.3465 36.1849 18.6209V19.6554C36.1849 19.9298 36.2939 20.1929 36.4879 20.3869C36.6819 20.5809 36.9451 20.6899 37.2194 20.6899C37.4938 20.6899 37.7569 20.5809 37.9509 20.3869C38.1449 20.1929 38.2539 19.9298 38.2539 19.6554V18.6209Z" fill="#393186"/>
<path d="M35.1504 20.6897H34.1603C34.0244 20.6868 33.8893 20.7107 33.7627 20.7599C33.6361 20.8092 33.5204 20.883 33.4223 20.977C33.3242 21.071 33.2455 21.1834 33.1909 21.3078C33.1362 21.4322 33.1065 21.5661 33.1036 21.702C33.1007 21.8378 33.1246 21.9729 33.1739 22.0996C33.2232 22.2262 33.2969 22.3419 33.3909 22.44C33.4849 22.5381 33.5974 22.6167 33.7217 22.6714C33.8461 22.7261 33.9801 22.7557 34.1159 22.7587H35.1504C35.4248 22.7587 35.6879 22.6497 35.8819 22.4557C36.0759 22.2617 36.1849 21.9985 36.1849 21.7242C36.1849 21.4498 36.0759 21.1867 35.8819 20.9927C35.6879 20.7987 35.4248 20.6897 35.1504 20.6897Z" fill="#393186"/>
<path d="M39.2884 22.7584H40.3229C40.5972 22.7584 40.8604 22.6494 41.0544 22.4554C41.2484 22.2614 41.3574 21.9983 41.3574 21.7239C41.3574 21.4496 41.2484 21.1864 41.0544 20.9924C40.8604 20.7984 40.5972 20.6895 40.3229 20.6895H39.2884C39.014 20.6895 38.7509 20.7984 38.5569 20.9924C38.3629 21.1864 38.2539 21.4496 38.2539 21.7239C38.2539 21.9983 38.3629 22.2614 38.5569 22.4554C38.7509 22.6494 39.014 22.7584 39.2884 22.7584Z" fill="#393186"/>
<path d="M37.2194 25.8617C37.4938 25.8617 37.7569 25.7528 37.9509 25.5588C38.1449 25.3648 38.2539 25.1016 38.2539 24.8273V23.7928C38.2539 23.5184 38.1449 23.2553 37.9509 23.0613C37.7569 22.8673 37.4938 22.7583 37.2194 22.7583C36.9451 22.7583 36.6819 22.8673 36.4879 23.0613C36.2939 23.2553 36.1849 23.5184 36.1849 23.7928V24.8273C36.1849 25.1016 36.2939 25.3648 36.4879 25.5588C36.6819 25.7528 36.9451 25.8617 37.2194 25.8617Z" fill="#393186"/>
<path d="M15.412 32.1781C15.1666 32.0554 14.8825 32.0352 14.6222 32.1219C14.3619 32.2087 14.1468 32.3952 14.0241 32.6406C13.6331 33.4273 13.4296 34.2938 13.4296 35.1723C13.4296 36.0507 13.6331 36.9173 14.0241 37.7039C14.1468 37.9493 14.3619 38.1359 14.6222 38.2227C14.8825 38.3094 15.1666 38.2892 15.412 38.1665C15.6574 38.0438 15.844 37.8286 15.9308 37.5683C16.0175 37.308 15.9973 37.0239 15.8746 36.7785C15.6266 36.2794 15.4975 35.7296 15.4975 35.1723C15.4975 34.6149 15.6266 34.0651 15.8746 33.566C15.9973 33.3206 16.0175 33.0365 15.9307 32.7762C15.844 32.5159 15.6574 32.3008 15.412 32.1781Z" fill="#393186"/>
</svg>
