<svg width="83" height="83" viewBox="0 0 83 83" fill="none" xmlns="http://www.w3.org/2000/svg">
<circle cx="41.5" cy="41.5" r="41.5" fill="#A3C359"/>
<path d="M59.2465 29.1369C57.3938 27.0554 55.1452 26 52.5632 26C50.2427 26 48.2755 26.8264 46.7158 28.4561C45.1661 30.0753 44.3803 32.0866 44.3803 34.4342C44.3803 36.6527 45.174 38.6295 46.7394 40.31C48.1203 41.7925 49.8598 42.7354 51.9191 43.1198C51.559 45.8502 49.1454 48.3216 44.7308 50.4751L43.9359 50.8629L47.1952 56.8804L47.9309 56.5074C57.2665 51.775 62 45.0869 62 36.6287C62 33.7106 61.0737 31.1901 59.2465 29.1369ZM47.8963 54.6147L46.2633 51.6003C51.1739 49.0269 53.6619 45.9336 53.6619 42.3968V41.6395L52.9095 41.5543C50.8832 41.3249 49.2707 40.5399 47.9801 39.1542C46.6988 37.7786 46.0758 36.2348 46.0758 34.4342C46.0758 32.5116 46.686 30.9397 47.9408 29.6284C49.1854 28.3278 50.6975 27.6955 52.5633 27.6955C54.6697 27.6955 56.4415 28.5358 57.9799 30.2641C59.5442 32.0218 60.3046 34.1036 60.3046 36.6286C60.3046 40.5052 59.213 44.005 57.0605 47.0308C55.0065 49.9178 51.9258 52.4666 47.8963 54.6147Z" fill="#393186"/>
<path d="M36.2659 29.1335C34.3927 27.0546 32.1347 26.0005 29.5547 26.0005C27.2319 26.0005 25.2736 26.8284 23.7344 28.4611C22.2085 30.0798 21.4347 32.0895 21.4347 34.4347C21.4347 36.6531 22.2284 38.6299 23.7937 40.3105C25.1717 41.7898 26.8903 42.7319 28.9113 43.1179C28.5555 45.8505 26.162 48.3231 21.7828 50.4769L21 50.8618L24.1781 56.8836L24.9212 56.5087C34.2991 51.7765 39.0542 45.088 39.0542 36.6291C39.0541 33.7088 38.1159 31.1869 36.2659 29.1335ZM24.8965 54.6124L23.3081 51.6025C28.1831 49.0282 30.6533 45.9342 30.6533 42.3972V41.6416L29.9026 41.555C27.9178 41.3259 26.3252 40.5408 25.0342 39.1546C23.7528 37.7791 23.1301 36.2352 23.1301 34.4347C23.1301 32.5096 23.7313 30.936 24.968 29.6243C26.1911 28.3268 27.6916 27.696 29.5547 27.696C31.6632 27.696 33.4466 28.5374 35.0063 30.2685C36.5892 32.0252 37.3587 34.1059 37.3587 36.6291C37.3587 40.5051 36.2624 44.0044 34.1001 47.0298C32.0372 49.916 28.9433 52.4645 24.8965 54.6124Z" fill="#393186"/>
</svg>
