<svg width="104" height="52" viewBox="0 0 104 52" fill="none" xmlns="http://www.w3.org/2000/svg">
<path fill-rule="evenodd" clip-rule="evenodd" d="M52.0001 0C80.7138 0 104 9.76151 104 21.7983C104 33.835 80.714 43.5965 52.0001 43.5965C23.286 43.5965 0 33.835 0 21.7983C0 9.7615 23.286 0 52.0001 0ZM65.7938 15.7516L71.0587 21.4235H77.9292L71.0613 15.7516H76.5647L85.3273 21.4235H102.335C101.831 10.5608 79.4854 1.81298 52.0002 1.81298C24.5146 1.81298 2.16893 10.5609 1.66482 21.4235H17.5609L26.3233 15.7516H31.8268L24.9588 21.4235H31.8295L37.0944 15.7516H42.2439L39.475 21.4235H43.3042L48.7694 15.7516H53.9977L59.5007 21.4235H63.4133L60.6443 15.7516H65.7939H65.7938ZM71.7822 22.2031L77.1544 27.9905H66.6193L63.7938 22.2031H60.2571L65.8723 27.9905H56.1068L52.452 22.2031H45.1775L39.8066 27.9905H36.9763L42.5529 22.2031H39.0943L36.2687 27.9905H25.7337L31.1057 22.2031H24.0148L17.0068 27.9905H7.4151L16.3564 22.2031H1.66571C2.2093 33.0518 24.5395 41.7837 52.0001 41.7837C79.4603 41.7837 101.791 33.0519 102.334 22.2031H86.5316L95.4728 27.9905H85.8811L78.8732 22.2031H71.7821H71.7822ZM51.9598 21.4235L49.5064 17.5384L45.9009 21.4235H51.9598Z" fill="#318682"/>
<path d="M7.23702 37.1344L5.84761 37.9915L5.72028 39.6448L5.17589 39.3195L5.16562 37.584L6.69264 36.8091L7.23703 37.1344L7.23702 37.1344ZM8.20148 37.7107L6.81484 38.5694L6.68474 40.2211L6.14035 39.8958L6.13087 38.1607L7.65709 37.3854L8.20147 37.7107L8.20148 37.7107ZM7.22201 40.7556L9.51438 36.6429L10.2585 37.053L9.35649 38.6713L10.8129 39.4741L11.715 37.856L12.4581 38.2656L10.1657 42.3783L9.4226 41.9687L10.425 40.1703L8.96854 39.3675L7.96616 41.1658L7.22201 40.7556ZM13.0641 42.348L13.7376 42.8104C13.508 43.0694 13.2569 43.2326 12.9824 43.2993C12.7084 43.3672 12.4184 43.3323 12.1121 43.1967C11.6277 42.9822 11.3484 42.6476 11.2739 42.1904C11.2172 41.8262 11.2853 41.4273 11.4782 40.996C11.7092 40.48 12.0111 40.1295 12.3835 39.9444C12.7553 39.7591 13.126 39.7482 13.4948 39.9115C13.9095 40.0952 14.1676 40.393 14.2707 40.8052C14.3726 41.2171 14.2778 41.736 13.9853 42.3628L12.1381 41.5449C12.0342 41.7912 12.0082 42.0075 12.0616 42.1928C12.1144 42.3791 12.2263 42.5102 12.3955 42.5853C12.511 42.6363 12.6235 42.6441 12.7335 42.609C12.8442 42.5728 12.9548 42.4865 13.0641 42.348H13.0641ZM13.4786 41.5343C13.5803 41.2929 13.6066 41.0877 13.5574 40.9172C13.5081 40.747 13.408 40.6282 13.2575 40.5615C13.0962 40.4901 12.9342 40.4975 12.7708 40.5822C12.6078 40.6658 12.4762 40.8208 12.3773 41.0467L13.4786 41.5343ZM14.7498 40.5869L17.3425 41.5254L17.0922 42.2095L16.1747 41.8775L15.2538 44.394L14.4959 44.1196L15.4167 41.6032L14.4994 41.2711L14.7498 40.5869H14.7498ZM21.8396 46.5061L20.9546 46.2371L20.9174 45.1084L19.308 44.6191L18.662 45.54L17.7997 45.2778L20.7501 41.2577L21.6096 41.5191L21.8396 46.5061V46.5061ZM20.8895 44.2722L20.8477 42.4347L19.7911 43.9381L20.8895 44.2722V44.2722ZM23.6138 43.4407L26.2357 44.0909L25.4072 47.3958L24.6273 47.2025L25.2779 44.6072L24.2108 44.3426L23.8388 45.8266C23.744 46.2049 23.6388 46.4596 23.5224 46.5933C23.4063 46.7259 23.2947 46.8042 23.1877 46.8285C23.0815 46.8529 22.9233 46.8397 22.7132 46.7876C22.5885 46.7566 22.4288 46.6968 22.2336 46.6088L22.3949 45.9651C22.4121 45.9693 22.4556 45.9812 22.525 46.003C22.6052 46.0297 22.6672 46.0484 22.7118 46.0594C22.8173 46.0856 22.8925 46.0636 22.936 45.9909C22.9802 45.9195 23.0459 45.7057 23.1349 45.3508L23.6137 43.4407L23.6138 43.4407ZM26.992 44.2142L27.7762 44.3942L27.4613 45.7501C27.595 45.7638 27.6981 45.7404 27.7696 45.6792C27.8398 45.619 27.9429 45.4742 28.0763 45.2463C28.2526 44.9418 28.412 44.7582 28.5526 44.6939C28.6932 44.6294 28.8606 44.6195 29.0544 44.664C29.1136 44.6776 29.2164 44.7068 29.3611 44.7514L29.2289 45.3334C29.0217 45.2858 28.884 45.2767 28.8165 45.3072C28.7476 45.3398 28.6539 45.4621 28.5342 45.6739C28.3715 45.9591 28.1959 46.1176 28.0086 46.1487C28.2379 46.2834 28.3922 46.5716 28.4703 47.0154C28.4738 47.0388 28.4795 47.0625 28.4856 47.0886L28.7123 48.1048L27.8672 47.9107L27.6982 46.8617C27.6631 46.6493 27.6222 46.5084 27.5768 46.4395C27.5303 46.3716 27.4499 46.3238 27.3344 46.2972L27.0057 47.7129L26.2216 47.5329L26.992 44.2142L26.992 44.2142ZM29.2158 46.3619C29.273 46.0684 29.3942 45.7963 29.5768 45.546C29.7604 45.2971 29.9852 45.1221 30.2509 45.024C30.5171 44.9249 30.7969 44.903 31.0903 44.9597C31.5426 45.0472 31.8817 45.2835 32.107 45.6684C32.3323 46.0531 32.3956 46.4959 32.2974 46.9978C32.1988 47.5029 31.9707 47.8938 31.6141 48.1705C31.2563 48.4472 30.8565 48.5417 30.413 48.4559C30.1379 48.4027 29.8905 48.2835 29.6685 48.0968C29.4465 47.9099 29.2966 47.6701 29.2189 47.3775C29.1423 47.085 29.1404 46.7467 29.2158 46.3619ZM30.0185 46.5661C29.9536 46.8982 29.9744 47.1655 30.0812 47.369C30.1873 47.5724 30.3442 47.6943 30.551 47.7343C30.7579 47.7742 30.9485 47.7196 31.1223 47.5703C31.2973 47.4212 31.4175 47.1789 31.4831 46.8427C31.547 46.5158 31.5262 46.2498 31.4202 46.0463C31.3151 45.8432 31.159 45.7215 30.9523 45.6815C30.7454 45.6415 30.5541 45.696 30.3791 45.8452C30.2034 45.9941 30.0832 46.2352 30.0185 46.5661H30.0185ZM32.986 45.4405L35.0253 45.7256L34.9234 46.4465L33.684 46.2733L33.3093 48.9253L32.5095 48.8134L32.986 45.4405H32.986ZM34.9433 47.3777C34.9799 47.081 35.0815 46.8012 35.2463 46.5389C35.4118 46.2777 35.6239 46.0876 35.8822 45.9713C36.1407 45.8539 36.4184 45.8127 36.715 45.849C37.1722 45.9047 37.5272 46.117 37.779 46.4853C38.0306 46.8536 38.1248 47.2908 38.0622 47.7983C37.9991 48.3089 37.799 48.7148 37.4627 49.0156C37.1251 49.3164 36.733 49.4384 36.2846 49.3836C36.0064 49.3496 35.7513 49.2479 35.5165 49.077C35.282 48.906 35.1156 48.6772 35.0177 48.3907C34.9207 48.1041 34.8952 47.7668 34.9433 47.3777ZM35.7584 47.5258C35.7169 47.8616 35.7564 48.1268 35.8773 48.3224C35.9974 48.518 36.1624 48.6286 36.3716 48.6542C36.5808 48.6797 36.767 48.6119 36.93 48.4509C37.0941 48.2901 37.1969 48.0401 37.2389 47.7C37.2797 47.3696 37.2402 47.1057 37.1201 46.91C37.0011 46.7146 36.837 46.6041 36.6279 46.5785C36.4187 46.553 36.2315 46.6207 36.0676 46.7815C35.9026 46.9422 35.7997 47.1911 35.7584 47.5258ZM38.9357 46.1612L41.6231 46.442L41.2652 49.8294L40.4657 49.7459L40.7469 47.0859L39.6532 46.9716L39.4924 48.4925C39.4515 48.8803 39.383 49.1471 39.2864 49.2956C39.19 49.4431 39.0905 49.5361 38.988 49.575C38.8862 49.6139 38.7276 49.6225 38.5122 49.6C38.3844 49.5866 38.2179 49.5494 38.0123 49.4894L38.082 48.8296C38.0997 48.8315 38.1444 48.8371 38.216 48.8492C38.2991 48.8644 38.3631 48.8744 38.4089 48.8792C38.5172 48.8904 38.5884 48.8583 38.6213 48.7803C38.6552 48.7034 38.6903 48.4826 38.7288 48.1188L38.9357 46.1612H38.9357ZM42.3175 46.4522L43.0898 46.5194L42.9023 48.6505L44.3259 46.6269L45.1149 46.6955L44.8163 50.0886L44.044 50.0214L44.2348 47.8522L42.7913 49.9125L42.0191 49.8453L42.3175 46.4522L42.3175 46.4522ZM46.5255 48.7847L46.5461 48.1983C46.6852 48.2031 46.7874 48.1958 46.8507 48.1782C46.9153 48.1597 46.9767 48.1125 47.0352 48.0368C47.0949 47.961 47.1263 47.8723 47.1299 47.7716C47.1336 47.6655 47.1019 47.5647 47.0355 47.4714C46.9681 47.3782 46.865 47.3296 46.7259 47.3248C46.6191 47.3211 46.5222 47.3431 46.4362 47.3914C46.3501 47.4399 46.2695 47.5588 46.194 47.749L45.5162 47.5622C45.5962 47.2648 45.751 47.0457 45.9815 46.9035C46.2131 46.7625 46.4733 46.696 46.7622 46.706C47.1296 46.7188 47.4103 46.8228 47.6055 47.0179C47.8007 47.2132 47.8933 47.453 47.8834 47.7376C47.8771 47.9148 47.8289 48.0599 47.7375 48.1729C47.6464 48.2869 47.5052 48.3905 47.3148 48.4847C47.5375 48.5603 47.7023 48.6701 47.8102 48.813C47.917 48.9559 47.9668 49.1306 47.9595 49.3386C47.95 49.6034 47.8315 49.8271 47.6025 50.0108C47.3743 50.1947 47.0508 50.2786 46.6344 50.2642C45.9065 50.2389 45.473 49.9062 45.3327 49.2659L46.0755 49.1406C46.1824 49.4783 46.3734 49.6526 46.6468 49.662C46.7975 49.6673 46.9207 49.6267 47.0138 49.5412C47.1079 49.4558 47.1577 49.3534 47.1619 49.233C47.1665 49.1006 47.1223 48.9951 47.0307 48.9163C46.9386 48.8365 46.8154 48.7948 46.6626 48.7894L46.5255 48.7847V48.7847ZM48.5147 46.8068L49.5144 46.8241L50.2303 49.2106L51.0353 46.8505L52.0319 46.8678L51.9721 50.2734L51.2861 50.2615L51.3254 48.0197L50.5424 50.2486L49.8534 50.2366L49.1833 47.9825L49.144 50.2243L48.4549 50.2123L48.5147 46.8068V46.8068ZM52.2032 46.8648L53.0612 46.8351L53.8749 49.2267L54.5021 46.7851L55.3366 46.756L54.3762 50.0693L54.204 50.6691C54.1404 50.8695 54.0782 51.024 54.0183 51.1313C53.9574 51.2386 53.8868 51.3254 53.8058 51.394C53.7248 51.4613 53.6249 51.5163 53.5045 51.5567C53.3844 51.597 53.248 51.6203 53.094 51.6257C52.9394 51.631 52.7869 51.6178 52.6358 51.5869L52.5394 50.8835C52.6668 50.9076 52.7809 50.9168 52.8828 50.9132C53.0699 50.9067 53.2069 50.8407 53.2926 50.715C53.3774 50.5893 53.4414 50.4305 53.4829 50.2384L52.2032 46.8648L52.2032 46.8648ZM57.4091 46.7166L58.1833 46.6762L58.2958 48.8125L59.4224 46.6117L60.2133 46.5704L60.3925 49.9717L59.6184 50.0121L59.5037 47.8375L58.3625 50.0775L57.5883 50.1179L57.4091 46.7165V46.7166ZM62.8636 49.8314L62.3693 45.1549L63.2156 45.0664L63.41 46.9065L65.0659 46.7335L64.8715 44.8933L65.7165 44.805L66.2109 49.4816L65.3657 49.5698L65.1497 47.525L63.4936 47.6981L63.7097 49.743L62.8636 49.8314L62.8636 49.8314ZM67.3667 46.9304L66.6208 46.8854C66.6563 46.5478 66.762 46.2874 66.9389 46.1025C67.1168 45.9184 67.4005 45.7979 67.7927 45.7431C68.1498 45.6932 68.4215 45.7038 68.6095 45.7739C68.7967 45.8438 68.9368 45.946 69.0282 46.0813C69.1196 46.2167 69.1929 46.4772 69.2478 46.8654L69.3863 47.9085C69.4281 48.2044 69.4717 48.4217 69.5178 48.5591C69.5628 48.6953 69.6327 48.8404 69.7254 48.9911L68.9343 49.1017C68.9056 49.0448 68.8669 48.9607 68.8204 48.8489C68.8002 48.7976 68.7856 48.7642 68.7774 48.7477C68.6616 48.9153 68.5317 49.0463 68.3869 49.1426C68.242 49.2382 68.0812 49.2982 67.9045 49.323C67.594 49.3663 67.3351 49.3063 67.1301 49.1438C66.9237 48.9803 66.8007 48.7542 66.76 48.4657C66.7332 48.2761 66.7499 48.1001 66.8102 47.9391C66.8708 47.778 66.9691 47.6482 67.1045 47.5486C67.2399 47.449 67.4427 47.3499 67.7108 47.2516C68.0725 47.1214 68.3213 47.0115 68.4553 46.9242L68.4428 46.8354C68.4185 46.6629 68.3634 46.5467 68.2774 46.4837C68.1914 46.4217 68.0434 46.4046 67.8329 46.4341C67.6902 46.454 67.584 46.501 67.5133 46.575C67.4424 46.6478 67.3938 46.7662 67.3667 46.9304L67.3667 46.9304ZM68.5375 47.5054C68.441 47.5575 68.2853 47.6257 68.0706 47.7099C67.8567 47.794 67.7195 47.8662 67.6576 47.9258C67.5657 48.0237 67.5279 48.135 67.5458 48.2619C67.5634 48.3877 67.6205 48.4893 67.7169 48.5686C67.8132 48.648 67.9254 48.6788 68.0545 48.6607C68.1991 48.6405 68.3284 48.5684 68.4447 48.4449C68.5304 48.351 68.5794 48.2435 68.5929 48.1223C68.6036 48.0434 68.5928 47.8967 68.5627 47.6831L68.5375 47.5054ZM69.7526 45.5959L70.4961 45.4789L70.5748 45.9731C70.6437 45.7882 70.7523 45.6302 70.9002 45.4994C71.0479 45.3675 71.2224 45.2857 71.4229 45.2541C71.7723 45.1991 72.0941 45.306 72.3857 45.5735C72.6785 45.8412 72.8684 46.2492 72.9555 46.7963C73.045 47.3576 72.9915 47.8138 72.7962 48.1638C72.5999 48.5139 72.3265 48.7166 71.9771 48.7716C71.8105 48.7979 71.6537 48.785 71.5065 48.7327C71.36 48.6794 71.1975 48.5753 71.019 48.4193L71.2891 50.1149L70.4922 50.2404L69.7526 45.5959V45.5959ZM70.8004 47.097C70.8606 47.4745 70.972 47.744 71.1351 47.9023C71.2974 48.0618 71.4754 48.1269 71.669 48.0964C71.854 48.0672 71.9946 47.9597 72.0912 47.7749C72.1878 47.5901 72.2064 47.3079 72.1463 46.9304C72.09 46.5768 71.9844 46.3253 71.8303 46.1743C71.6763 46.0234 71.506 45.9628 71.3191 45.9922C71.1246 46.0229 70.9761 46.1316 70.8743 46.3206C70.7722 46.5085 70.7478 46.7671 70.8004 47.097ZM73.0972 45.0187L73.8844 44.8523L74.1752 46.2136C74.3023 46.1698 74.3856 46.1053 74.4243 46.0197C74.4625 45.9357 74.4944 45.761 74.5184 45.4985C74.5488 45.1483 74.6153 44.9149 74.7154 44.7976C74.8155 44.6801 74.9628 44.6008 75.1574 44.5596C75.217 44.5471 75.3226 44.5304 75.4726 44.5099L75.6002 45.0929C75.3921 45.1369 75.2635 45.1864 75.2153 45.2426C75.1667 45.301 75.1337 45.4512 75.1152 45.6935C75.089 46.0204 74.9971 46.2378 74.8406 46.3448C75.1056 46.3705 75.368 46.5669 75.6274 46.9363C75.6405 46.9559 75.6556 46.975 75.6723 46.9962L76.3095 47.8218L75.4612 48.0012L74.8623 47.1214C74.7401 46.9437 74.6432 46.8331 74.5729 46.7898C74.5019 46.7477 74.4086 46.7383 74.2927 46.7628L74.5963 48.184L73.8092 48.3503L73.0972 45.0187ZM76.0678 46.146C76.0001 45.8549 75.9996 45.557 76.064 45.2547C76.1299 44.9529 76.2636 44.7021 76.4664 44.505C76.6688 44.3068 76.9156 44.1737 77.2069 44.1068C77.6558 44.0037 78.0624 44.0824 78.4255 44.3429C78.7887 44.6032 79.0275 44.9821 79.1432 45.4803C79.2596 45.9816 79.2111 46.4311 78.9986 46.8282C78.7848 47.2256 78.4583 47.4735 78.018 47.5746C77.7449 47.6374 77.4702 47.6286 77.1909 47.5478C76.9116 47.4669 76.6767 47.3084 76.486 47.0725C76.2965 46.8362 76.1564 46.5279 76.0678 46.146ZM76.8846 46.0078C76.9613 46.3375 77.0895 46.5732 77.2703 46.7159C77.4505 46.8589 77.6435 46.9067 77.8489 46.8596C78.0542 46.8125 78.2058 46.6854 78.3038 46.4788C78.4025 46.2717 78.4132 46.0018 78.3359 45.668C78.2605 45.3436 78.1327 45.109 77.9526 44.966C77.7735 44.8229 77.5812 44.7748 77.3759 44.822C77.1706 44.8691 77.0182 44.9964 76.9191 45.2033C76.8194 45.4105 76.8084 45.6792 76.8846 46.0078ZM79.1744 43.7867L80.1355 43.5126L81.5216 45.5866L81.5976 43.0957L82.5558 42.8224L83.4998 46.0966L82.8402 46.2847L82.2189 44.1293L82.1251 46.4886L81.4629 46.6774L80.1593 44.7165L80.7808 46.8719L80.1184 47.0609L79.1743 43.7867L79.1744 43.7867ZM84.0401 43.4961L83.2995 43.5934C83.2694 43.2551 83.3232 42.9796 83.4612 42.7645C83.6005 42.55 83.856 42.3779 84.2304 42.2497C84.5715 42.1329 84.8402 42.0919 85.0383 42.1249C85.2354 42.1581 85.3924 42.2317 85.5083 42.3472C85.6239 42.4627 85.746 42.7046 85.8742 43.0752L86.2103 44.0729C86.3081 44.3555 86.3927 44.5604 86.4642 44.6865C86.5346 44.8117 86.6311 44.9409 86.7508 45.0712L85.9955 45.3298C85.9565 45.2795 85.9023 45.2042 85.8354 45.1034C85.8057 45.0568 85.7848 45.0268 85.7736 45.0122C85.6921 45.1987 85.5896 45.352 85.466 45.474C85.3421 45.5953 85.1959 45.6847 85.0272 45.7425C84.7307 45.844 84.4651 45.8343 84.2325 45.7137C83.9986 45.5921 83.8345 45.3936 83.7392 45.1183C83.6765 44.9371 83.6591 44.7612 83.6875 44.5917C83.716 44.4223 83.7877 44.2761 83.9013 44.1526C84.0152 44.0291 84.1952 43.8934 84.4396 43.746C84.7698 43.5495 84.9927 43.3945 85.1077 43.2833L85.0783 43.1984C85.0213 43.0338 84.9451 42.9302 84.8484 42.8846C84.752 42.8401 84.6036 42.8514 84.4025 42.9203C84.2663 42.9669 84.1711 43.0331 84.1158 43.1193C84.0604 43.2042 84.0352 43.3298 84.0401 43.4961ZM85.2998 43.8382C85.215 43.9077 85.0753 44.0042 84.8807 44.1276C84.6868 44.2507 84.5661 44.3476 84.5167 44.4178C84.4453 44.5315 84.4295 44.6479 84.4714 44.769C84.513 44.8891 84.5884 44.9781 84.6983 45.0376C84.808 45.0974 84.9241 45.1061 85.0472 45.064C85.1852 45.0167 85.2985 44.9214 85.389 44.7781C85.4551 44.6696 85.4826 44.5548 85.4726 44.4333C85.468 44.3538 85.4291 44.2118 85.3585 44.0079L85.2998 43.8382ZM86.0765 41.6962L86.8306 41.4083L87.2798 42.5726L88.357 42.1613L87.9076 40.9971L88.6642 40.7083L89.8917 43.8881L89.135 44.177L88.6193 42.841L87.5423 43.2521L88.0578 44.5882L87.3039 44.8759L86.0765 41.6962V41.6962ZM89.2307 40.5585L89.9389 40.245L90.8138 42.1993L91.0725 39.743L91.796 39.4227L93.189 42.5343L92.4807 42.8478L91.5901 40.8585L91.3319 43.3565L90.6238 43.6701L89.2307 40.5585V40.5585ZM92.3243 39.1923L93.0086 38.8305L94.0185 40.7193L94.1044 38.2511L94.8036 37.8814L96.4115 40.8886L95.7269 41.2506L94.699 39.328L94.6166 41.8378L93.9322 42.1997L92.3243 39.1923L92.3243 39.1923ZM97.8898 39.8203L97.7796 38.1952L96.3731 37.3099L96.9168 36.9851L98.4608 37.7881L98.4335 39.4955L97.8898 39.8203V39.8203ZM96.9255 40.3966L96.8142 38.772L95.4087 37.8862L95.9523 37.5614L97.4963 38.3645L97.4691 40.0717L96.9255 40.3966Z" fill="#31867b"/>
</svg>
