<svg width="18" height="25" viewBox="0 0 18 25" fill="none" xmlns="http://www.w3.org/2000/svg">
<path d="M8.69189 0.00140381C3.89916 0.00140381 0 3.90081 0 8.69381C0 14.6421 7.77839 23.3745 8.10957 23.7433C8.42063 24.0898 8.96372 24.0892 9.27422 23.7433C9.6054 23.3745 17.3838 14.6421 17.3838 8.69381C17.3837 3.90081 13.4846 0.00140381 8.69189 0.00140381ZM8.69189 22.0214C6.07407 18.9116 1.56525 12.7762 1.56525 8.6939C1.56525 4.76393 4.76222 1.56676 8.69189 1.56676C12.6216 1.56676 15.8185 4.76393 15.8185 8.69386C15.8185 12.7764 11.3104 18.9106 8.69189 22.0214Z" fill="#A3C359"/>
<path d="M8.69192 4.32047C6.28057 4.32047 4.31885 6.28211 4.31885 8.6933C4.31885 11.1045 6.28062 13.0661 8.69192 13.0661C11.1032 13.0661 13.0649 11.1045 13.0649 8.6933C13.0649 6.28211 11.1032 4.32047 8.69192 4.32047ZM8.69192 11.501C7.14363 11.501 5.8841 10.2415 5.8841 8.6933C5.8841 7.14512 7.14368 5.88562 8.69192 5.88562C10.2402 5.88562 11.4997 7.14512 11.4997 8.6933C11.4997 10.2415 10.2402 11.501 8.69192 11.501Z" fill="#A3C359"/>
</svg>
