<svg width="24" height="25" viewBox="0 0 24 25" fill="none" xmlns="http://www.w3.org/2000/svg">
<path d="M16.2118 13.4781C15.6237 13.13 14.5961 12.2788 13.6386 13.1899C13.4127 13.4199 13.2631 13.5738 13.1664 13.6727C12.2966 13.2607 10.7501 11.7676 10.3491 10.8254C11.77 9.53387 11.1123 9.0732 9.71486 6.41926C9.47609 6.0073 9.08901 5.73394 8.6166 5.73394C8.03799 5.73394 7.81185 6.01901 6.98531 6.85539C5.9504 7.90232 5.34304 8.23115 5.73232 10.0052C6.84011 15.0549 14.233 20.1123 16.3266 17.8515C18.0366 16.1531 18.3664 15.9921 18.2662 15.2241C18.1401 14.4593 17.5532 14.2718 16.2118 13.4781ZM15.2961 16.8946C15.1765 17.0274 14.4606 17.0711 13.273 16.5782C11.021 15.6437 8.6849 13.1914 7.72762 11.3606C7.42275 10.7774 6.74856 9.0483 7.12283 8.71104C7.2759 8.56585 8.30514 7.51489 8.56844 7.26021C9.26937 8.58874 9.61068 9.20979 9.72402 9.46283C9.52242 9.77409 8.87771 10.0178 8.87771 10.7813C9.16134 12.273 11.1021 14.101 12.262 14.7812C13.446 15.4754 13.8248 15.0113 14.2561 14.5693C14.6411 14.1749 14.6082 14.1989 14.6483 14.1949L16.7662 15.4396C16.518 15.6992 15.4675 16.7144 15.2961 16.8946Z" fill="#A3C359"/>
<path d="M12 0.00127411C5.367 0.00127411 0 5.36954 0 12.002C0 18.6355 5.36792 24.0028 12 24.0028C18.633 24.0028 24 18.6345 24 12.002C24 5.36862 18.6321 0.00127411 12 0.00127411ZM12 22.5965C6.14429 22.5965 1.40625 17.8572 1.40625 12.002C1.40625 6.14595 6.1452 1.40761 12 1.40761C17.8557 1.40761 22.5938 6.14687 22.5938 12.002C22.5938 17.8581 17.8548 22.5965 12 22.5965Z" fill="#A3C359"/>
</svg>
