<svg width="390" height="55" viewBox="0 0 390 55" fill="none" xmlns="http://www.w3.org/2000/svg">
<path d="M46.968 26.072C46.968 26.6373 46.824 27.144 46.536 27.592C46.248 28.0293 45.8587 28.376 45.368 28.632C44.888 28.8773 44.36 29 43.784 29H38.424V17.64H43.896C44.4293 17.64 44.888 17.784 45.272 18.072C45.656 18.3493 45.9547 18.712 46.168 19.16C46.3813 19.5973 46.488 20.056 46.488 20.536C46.488 21.1013 46.344 21.624 46.056 22.104C45.768 22.584 45.368 22.9413 44.856 23.176C45.496 23.368 46.008 23.7253 46.392 24.248C46.776 24.7707 46.968 25.3787 46.968 26.072ZM39.544 18.616V22.808H43.448C43.8213 22.808 44.152 22.712 44.44 22.52C44.7387 22.3173 44.968 22.0613 45.128 21.752C45.2987 21.432 45.384 21.0853 45.384 20.712C45.384 20.328 45.304 19.976 45.144 19.656C44.984 19.336 44.7653 19.0853 44.488 18.904C44.2107 18.712 43.896 18.616 43.544 18.616H39.544ZM45.848 25.88C45.848 25.5067 45.7627 25.1547 45.592 24.824C45.4213 24.4933 45.1867 24.2267 44.888 24.024C44.6 23.8213 44.2693 23.72 43.896 23.72H39.544V28.024H43.784C44.168 28.024 44.5147 27.9227 44.824 27.72C45.1333 27.5173 45.3787 27.256 45.56 26.936C45.752 26.6053 45.848 26.2533 45.848 25.88ZM48.1842 26.6C48.1842 26.088 48.3336 25.6453 48.6323 25.272C48.9309 24.888 49.3416 24.5893 49.8643 24.376C50.3976 24.1627 51.0109 24.056 51.7043 24.056C52.1096 24.056 52.5309 24.0933 52.9683 24.168C53.4056 24.232 53.7949 24.3227 54.1363 24.44V23.736C54.1363 23.032 53.9283 22.472 53.5123 22.056C53.0963 21.64 52.5203 21.432 51.7843 21.432C51.3469 21.432 50.9096 21.5173 50.4723 21.688C50.0349 21.848 49.5816 22.088 49.1123 22.408L48.6963 21.64C49.2403 21.2667 49.7736 20.9893 50.2963 20.808C50.8189 20.616 51.3523 20.52 51.8963 20.52C52.9203 20.52 53.7309 20.8133 54.3283 21.4C54.9256 21.9867 55.2243 22.7973 55.2243 23.832V27.688C55.2243 27.976 55.3576 28.1253 55.6243 28.136V29C55.3896 29.032 55.2243 29.0427 55.1283 29.032C54.8616 29.0213 54.6589 28.936 54.5203 28.776C54.3816 28.616 54.3069 28.4453 54.2963 28.264L54.2803 27.656C53.9069 28.136 53.4216 28.5093 52.8243 28.776C52.2269 29.032 51.6189 29.16 51.0003 29.16C50.4563 29.16 49.9709 29.048 49.5443 28.824C49.1176 28.5893 48.7816 28.28 48.5363 27.896C48.3016 27.5013 48.1842 27.0693 48.1842 26.6ZM53.7683 27.24C54.0136 26.952 54.1363 26.6853 54.1363 26.44V25.224C53.4003 24.936 52.6323 24.792 51.8323 24.792C51.0536 24.792 50.4243 24.9467 49.9443 25.256C49.4643 25.5653 49.2243 25.9867 49.2243 26.52C49.2243 26.9787 49.4003 27.3947 49.7523 27.768C50.1149 28.1413 50.6163 28.328 51.2563 28.328C51.7789 28.328 52.2643 28.2267 52.7123 28.024C53.1709 27.8213 53.5229 27.56 53.7683 27.24ZM57.559 29V20.664H58.647V28.04H62.215V20.664H63.319V28.04H66.871V20.664H67.959V29H57.559ZM74.4028 29V20.664H79.3788V21.64H75.4908V29H74.4028ZM84.4551 29.16C83.6551 29.16 82.9405 28.9627 82.3111 28.568C81.6925 28.1733 81.2071 27.6507 80.8551 27C80.5031 26.3387 80.3271 25.624 80.3271 24.856C80.3271 24.0773 80.5031 23.3627 80.8551 22.712C81.2178 22.0507 81.7085 21.5227 82.3271 21.128C82.9565 20.7227 83.6658 20.52 84.4551 20.52C85.2551 20.52 85.9645 20.7227 86.5831 21.128C87.2125 21.5227 87.7031 22.0507 88.0551 22.712C88.4178 23.3627 88.5991 24.0773 88.5991 24.856C88.5991 25.624 88.4231 26.3387 88.0711 27C87.7191 27.6507 87.2285 28.1733 86.5991 28.568C85.9805 28.9627 85.2658 29.16 84.4551 29.16ZM81.4311 24.872C81.4311 25.4907 81.5645 26.056 81.8311 26.568C82.1085 27.0693 82.4765 27.4693 82.9351 27.768C83.3938 28.056 83.9005 28.2 84.4551 28.2C85.0098 28.2 85.5165 28.0507 85.9751 27.752C86.4338 27.4533 86.8018 27.048 87.0791 26.536C87.3565 26.024 87.4951 25.4587 87.4951 24.84C87.4951 24.2213 87.3565 23.656 87.0791 23.144C86.8018 22.632 86.4338 22.2267 85.9751 21.928C85.5165 21.6293 85.0098 21.48 84.4551 21.48C83.9111 21.48 83.4098 21.6347 82.9511 21.944C82.4925 22.2427 82.1245 22.648 81.8471 23.16C81.5698 23.672 81.4311 24.2427 81.4311 24.872ZM94.6748 29.16C93.9814 29.16 93.3574 28.9787 92.8028 28.616C92.2588 28.2533 91.8268 27.8053 91.5068 27.272V32.408H90.4188V20.664H91.3948V22.28C91.7254 21.7573 92.1628 21.336 92.7068 21.016C93.2614 20.6853 93.8588 20.52 94.4988 20.52C95.0748 20.52 95.6028 20.6427 96.0828 20.888C96.5628 21.1227 96.9788 21.4427 97.3308 21.848C97.6934 22.2533 97.9708 22.7173 98.1628 23.24C98.3548 23.752 98.4508 24.2853 98.4508 24.84C98.4508 25.6187 98.2908 26.3387 97.9708 27C97.6614 27.6507 97.2188 28.1733 96.6428 28.568C96.0774 28.9627 95.4214 29.16 94.6748 29.16ZM94.3708 28.2C94.9788 28.2 95.5014 28.04 95.9388 27.72C96.3868 27.3893 96.7334 26.968 96.9788 26.456C97.2241 25.944 97.3468 25.4053 97.3468 24.84C97.3468 24.2427 97.2081 23.688 96.9308 23.176C96.6534 22.664 96.2801 22.2533 95.8108 21.944C95.3521 21.6347 94.8294 21.48 94.2428 21.48C93.8801 21.48 93.4961 21.576 93.0908 21.768C92.6961 21.9493 92.3441 22.2 92.0348 22.52C91.7361 22.8293 91.5601 23.1707 91.5068 23.544V26.104C91.7521 26.6907 92.1361 27.1867 92.6588 27.592C93.1814 27.9973 93.7521 28.2 94.3708 28.2ZM103.846 29.16C103.046 29.16 102.331 28.9627 101.702 28.568C101.083 28.1733 100.598 27.6507 100.246 27C99.8938 26.3387 99.7178 25.624 99.7178 24.856C99.7178 24.0773 99.8938 23.3627 100.246 22.712C100.608 22.0507 101.099 21.5227 101.718 21.128C102.347 20.7227 103.056 20.52 103.846 20.52C104.646 20.52 105.355 20.7227 105.974 21.128C106.603 21.5227 107.094 22.0507 107.446 22.712C107.808 23.3627 107.99 24.0773 107.99 24.856C107.99 25.624 107.814 26.3387 107.462 27C107.11 27.6507 106.619 28.1733 105.99 28.568C105.371 28.9627 104.656 29.16 103.846 29.16ZM100.822 24.872C100.822 25.4907 100.955 26.056 101.222 26.568C101.499 27.0693 101.867 27.4693 102.326 27.768C102.784 28.056 103.291 28.2 103.846 28.2C104.4 28.2 104.907 28.0507 105.366 27.752C105.824 27.4533 106.192 27.048 106.47 26.536C106.747 26.024 106.886 25.4587 106.886 24.84C106.886 24.2213 106.747 23.656 106.47 23.144C106.192 22.632 105.824 22.2267 105.366 21.928C104.907 21.6293 104.4 21.48 103.846 21.48C103.302 21.48 102.8 21.6347 102.342 21.944C101.883 22.2427 101.515 22.648 101.238 23.16C100.96 23.672 100.822 24.2427 100.822 24.872ZM108.881 30.936V28.024H109.025C109.345 28.024 109.633 27.8853 109.889 27.608C110.145 27.3307 110.353 26.8293 110.513 26.104C110.684 25.368 110.785 24.328 110.817 22.984L110.897 20.664H116.321V28.024H117.441V30.936H116.465V29H109.841V30.936H108.881ZM110.673 28.024H115.233V21.64H111.873L111.825 23.08C111.772 24.5733 111.649 25.704 111.457 26.472C111.265 27.2293 111.004 27.7467 110.673 28.024ZM118.931 22.28V20.712H119.859V22.28H118.931ZM118.931 29V27.432H119.859V29H118.931Z" fill="#1F1F1F"/>
<path d="M8.69189 11.0014C3.89916 11.0014 0 14.9008 0 19.6938C0 25.6421 7.77839 34.3745 8.10957 34.7433C8.42063 35.0898 8.96372 35.0892 9.27422 34.7433C9.6054 34.3745 17.3838 25.6421 17.3838 19.6938C17.3837 14.9008 13.4846 11.0014 8.69189 11.0014ZM8.69189 33.0214C6.07407 29.9116 1.56525 23.7762 1.56525 19.6939C1.56525 15.7639 4.76222 12.5668 8.69189 12.5668C12.6216 12.5668 15.8185 15.7639 15.8185 19.6939C15.8185 23.7764 11.3104 29.9106 8.69189 33.0214Z" fill="#A3C359"/>
<path d="M8.69192 15.3205C6.28057 15.3205 4.31885 17.2821 4.31885 19.6933C4.31885 22.1045 6.28062 24.0661 8.69192 24.0661C11.1032 24.0661 13.0649 22.1045 13.0649 19.6933C13.0649 17.2821 11.1032 15.3205 8.69192 15.3205ZM8.69192 22.501C7.14363 22.501 5.8841 21.2415 5.8841 19.6933C5.8841 18.1451 7.14368 16.8856 8.69192 16.8856C10.2402 16.8856 11.4997 18.1451 11.4997 19.6933C11.4997 21.2415 10.2402 22.501 8.69192 22.501Z" fill="#A3C359"/>
<g filter="url(#filter0_d)">
<rect x="141" width="245" height="47" rx="4" fill="white"/>
<rect x="141.5" y="0.5" width="244" height="46" rx="3.5" stroke="#E0E0E0"/>
</g>
<path d="M161.184 29V20.664H166.16V21.64H162.272V29H161.184ZM167.524 29V27.432H168.468V29H167.524ZM183.978 17.64V29H182.874V23.688H176.138V29H175.018V17.64H176.138V22.696H182.874V17.64H183.978ZM186.59 29V20.68H187.678V27.528L192.75 20.664H193.726V29H192.638V22.264L187.646 29H186.59ZM195.514 29L198.634 24.712L195.818 20.664H197.05L199.562 24.264H200.65V20.664H201.77V24.264H202.89L205.354 20.664H206.602L203.77 24.712L206.922 29H205.658L202.89 25.224H201.77V29H200.65V25.224H199.562L196.778 29H195.514ZM208.715 29V20.664H209.803V24.248H214.571V20.664H215.659V29H214.571V25.224H209.803V29H208.715ZM218.043 29V20.68H219.131V27.528L224.203 20.664H225.179V29H224.091V22.264L219.099 29H218.043ZM227.543 29V20.68H228.631V27.528L233.703 20.664H234.679V29H233.591V22.264L228.599 29H227.543ZM231.127 19.608C230.402 19.608 229.842 19.4373 229.447 19.096C229.053 18.7547 228.855 18.3227 228.855 17.8H229.655C229.655 18.12 229.773 18.3867 230.007 18.6C230.253 18.8133 230.626 18.92 231.127 18.92C231.618 18.92 231.975 18.8187 232.199 18.616C232.434 18.4133 232.567 18.1413 232.599 17.8H233.383C233.383 18.3227 233.186 18.7547 232.791 19.096C232.397 19.4373 231.842 19.608 231.127 19.608ZM250.322 17.64V29H249.218V23.688H242.482V29H241.362V17.64H242.482V22.696H249.218V17.64H250.322ZM256.377 29.16C255.577 29.16 254.862 28.9627 254.233 28.568C253.614 28.1733 253.129 27.6507 252.777 27C252.425 26.3387 252.249 25.624 252.249 24.856C252.249 24.0773 252.425 23.3627 252.777 22.712C253.14 22.0507 253.63 21.5227 254.249 21.128C254.878 20.7227 255.588 20.52 256.377 20.52C257.177 20.52 257.886 20.7227 258.505 21.128C259.134 21.5227 259.625 22.0507 259.977 22.712C260.34 23.3627 260.521 24.0773 260.521 24.856C260.521 25.624 260.345 26.3387 259.993 27C259.641 27.6507 259.15 28.1733 258.521 28.568C257.902 28.9627 257.188 29.16 256.377 29.16ZM253.353 24.872C253.353 25.4907 253.486 26.056 253.753 26.568C254.03 27.0693 254.398 27.4693 254.857 27.768C255.316 28.056 255.822 28.2 256.377 28.2C256.932 28.2 257.438 28.0507 257.897 27.752C258.356 27.4533 258.724 27.048 259.001 26.536C259.278 26.024 259.417 25.4587 259.417 24.84C259.417 24.2213 259.278 23.656 259.001 23.144C258.724 22.632 258.356 22.2267 257.897 21.928C257.438 21.6293 256.932 21.48 256.377 21.48C255.833 21.48 255.332 21.6347 254.873 21.944C254.414 22.2427 254.046 22.648 253.769 23.16C253.492 23.672 253.353 24.2427 253.353 24.872ZM262.325 29V20.664H266.485C266.954 20.664 267.349 20.7653 267.669 20.968C267.989 21.16 268.229 21.416 268.389 21.736C268.559 22.0453 268.645 22.3707 268.645 22.712C268.645 23.16 268.533 23.5653 268.309 23.928C268.095 24.28 267.791 24.5467 267.397 24.728C267.877 24.856 268.266 25.1067 268.565 25.48C268.863 25.8533 269.013 26.2907 269.013 26.792C269.013 27.464 268.773 28.0027 268.293 28.408C267.823 28.8027 267.221 29 266.485 29H262.325ZM263.365 24.424H266.197C266.613 24.424 266.949 24.2693 267.205 23.96C267.471 23.64 267.605 23.2827 267.605 22.888C267.605 22.504 267.477 22.168 267.221 21.88C266.975 21.592 266.655 21.448 266.261 21.448H263.365V24.424ZM263.365 28.216H266.453C266.879 28.216 267.237 28.0613 267.525 27.752C267.813 27.432 267.957 27.08 267.957 26.696C267.957 26.28 267.818 25.9227 267.541 25.624C267.263 25.3253 266.922 25.176 266.517 25.176H263.365V28.216ZM270.887 29V20.664H275.863V21.64H271.975V29H270.887ZM280.94 29.16C280.14 29.16 279.425 28.9627 278.796 28.568C278.177 28.1733 277.692 27.6507 277.34 27C276.988 26.3387 276.812 25.624 276.812 24.856C276.812 24.0773 276.988 23.3627 277.34 22.712C277.702 22.0507 278.193 21.5227 278.812 21.128C279.441 20.7227 280.15 20.52 280.94 20.52C281.74 20.52 282.449 20.7227 283.068 21.128C283.697 21.5227 284.188 22.0507 284.54 22.712C284.902 23.3627 285.084 24.0773 285.084 24.856C285.084 25.624 284.908 26.3387 284.556 27C284.204 27.6507 283.713 28.1733 283.084 28.568C282.465 28.9627 281.75 29.16 280.94 29.16ZM277.916 24.872C277.916 25.4907 278.049 26.056 278.316 26.568C278.593 27.0693 278.961 27.4693 279.42 27.768C279.878 28.056 280.385 28.2 280.94 28.2C281.494 28.2 282.001 28.0507 282.46 27.752C282.918 27.4533 283.286 27.048 283.564 26.536C283.841 26.024 283.98 25.4587 283.98 24.84C283.98 24.2213 283.841 23.656 283.564 23.144C283.286 22.632 282.918 22.2267 282.46 21.928C282.001 21.6293 281.494 21.48 280.94 21.48C280.396 21.48 279.894 21.6347 279.436 21.944C278.977 22.2427 278.609 22.648 278.332 23.16C278.054 23.672 277.916 24.2427 277.916 24.872ZM291.159 29.16C290.466 29.16 289.842 28.9787 289.287 28.616C288.743 28.2533 288.311 27.8053 287.991 27.272V32.408H286.903V20.664H287.879V22.28C288.21 21.7573 288.647 21.336 289.191 21.016C289.746 20.6853 290.343 20.52 290.983 20.52C291.559 20.52 292.087 20.6427 292.567 20.888C293.047 21.1227 293.463 21.4427 293.815 21.848C294.178 22.2533 294.455 22.7173 294.647 23.24C294.839 23.752 294.935 24.2853 294.935 24.84C294.935 25.6187 294.775 26.3387 294.455 27C294.146 27.6507 293.703 28.1733 293.127 28.568C292.562 28.9627 291.906 29.16 291.159 29.16ZM290.855 28.2C291.463 28.2 291.986 28.04 292.423 27.72C292.871 27.3893 293.218 26.968 293.463 26.456C293.708 25.944 293.831 25.4053 293.831 24.84C293.831 24.2427 293.692 23.688 293.415 23.176C293.138 22.664 292.764 22.2533 292.295 21.944C291.836 21.6347 291.314 21.48 290.727 21.48C290.364 21.48 289.98 21.576 289.575 21.768C289.18 21.9493 288.828 22.2 288.519 22.52C288.22 22.8293 288.044 23.1707 287.991 23.544V26.104C288.236 26.6907 288.62 27.1867 289.143 27.592C289.666 27.9973 290.236 28.2 290.855 28.2ZM300.33 29.16C299.53 29.16 298.815 28.9627 298.186 28.568C297.567 28.1733 297.082 27.6507 296.73 27C296.378 26.3387 296.202 25.624 296.202 24.856C296.202 24.0773 296.378 23.3627 296.73 22.712C297.093 22.0507 297.583 21.5227 298.202 21.128C298.831 20.7227 299.541 20.52 300.33 20.52C301.13 20.52 301.839 20.7227 302.458 21.128C303.087 21.5227 303.578 22.0507 303.93 22.712C304.293 23.3627 304.474 24.0773 304.474 24.856C304.474 25.624 304.298 26.3387 303.946 27C303.594 27.6507 303.103 28.1733 302.474 28.568C301.855 28.9627 301.141 29.16 300.33 29.16ZM297.306 24.872C297.306 25.4907 297.439 26.056 297.706 26.568C297.983 27.0693 298.351 27.4693 298.81 27.768C299.269 28.056 299.775 28.2 300.33 28.2C300.885 28.2 301.391 28.0507 301.85 27.752C302.309 27.4533 302.677 27.048 302.954 26.536C303.231 26.024 303.37 25.4587 303.37 24.84C303.37 24.2213 303.231 23.656 302.954 23.144C302.677 22.632 302.309 22.2267 301.85 21.928C301.391 21.6293 300.885 21.48 300.33 21.48C299.786 21.48 299.285 21.6347 298.826 21.944C298.367 22.2427 297.999 22.648 297.722 23.16C297.445 23.672 297.306 24.2427 297.306 24.872ZM305.366 30.936V28.024H305.51C305.83 28.024 306.118 27.8853 306.374 27.608C306.63 27.3307 306.838 26.8293 306.998 26.104C307.168 25.368 307.27 24.328 307.302 22.984L307.382 20.664H312.806V28.024H313.926V30.936H312.95V29H306.326V30.936H305.366ZM307.158 28.024H311.718V21.64H308.358L308.31 23.08C308.256 24.5733 308.134 25.704 307.942 26.472C307.75 27.2293 307.488 27.7467 307.158 28.024Z" fill="#1F1F1F"/>
<path d="M357 22L361.5 26L366 22" stroke="#A3C359" stroke-linecap="round"/>
<line x1="145.5" y1="46.5" x2="381.5" y2="46.5" stroke="#393186" stroke-linecap="round"/>
<defs>
<filter id="filter0_d" x="137" y="0" width="253" height="55" filterUnits="userSpaceOnUse" color-interpolation-filters="sRGB">
<feFlood flood-opacity="0" result="BackgroundImageFix"/>
<feColorMatrix in="SourceAlpha" type="matrix" values="0 0 0 0 0 0 0 0 0 0 0 0 0 0 0 0 0 0 127 0"/>
<feOffset dy="4"/>
<feGaussianBlur stdDeviation="2"/>
<feColorMatrix type="matrix" values="0 0 0 0 0 0 0 0 0 0 0 0 0 0 0 0 0 0 0.1 0"/>
<feBlend mode="normal" in2="BackgroundImageFix" result="effect1_dropShadow"/>
<feBlend mode="normal" in="SourceGraphic" in2="effect1_dropShadow" result="shape"/>
</filter>
</defs>
</svg>
