<svg width="61" height="60" viewBox="0 0 61 60" fill="none" xmlns="http://www.w3.org/2000/svg">
<path d="M5.99891 21H34.999C35.5514 21 35.9991 20.5523 35.9991 20.0004C35.9991 19.448 35.5514 19.0002 34.999 19.0002H5.99891C5.44649 19.0002 4.99878 19.448 4.99878 20.0004C4.99878 20.5523 5.44649 21 5.99891 21Z" fill="#393186"/>
<path d="M20.999 8.00002H32.9992C33.5512 8.00002 33.9989 7.55231 33.9989 6.99989C33.9989 6.44746 33.5512 5.99976 32.9992 5.99976H20.999C20.4466 5.99976 19.9989 6.44746 19.9989 6.99989C19.9989 7.55231 20.4466 8.00002 20.999 8.00002Z" fill="#393186"/>
<path d="M20.999 12.0003H32.9992C33.5512 12.0003 33.9989 11.5526 33.9989 11.0001C33.9989 10.4477 33.5512 10 32.9992 10H20.999C20.4466 10 19.9989 10.4477 19.9989 11.0001C19.9989 11.5526 20.4466 12.0003 20.999 12.0003Z" fill="#393186"/>
<path d="M20.999 16.0003H32.9992C33.5512 16.0003 33.9989 15.5526 33.9989 15.0001C33.9989 14.4477 33.5512 14 32.9992 14H20.999C20.4466 14 19.9989 14.4477 19.9989 15.0001C19.9989 15.5526 20.4466 16.0003 20.999 16.0003Z" fill="#393186"/>
<path d="M26.9988 43H5.99891C5.44649 43 4.99878 43.4477 4.99878 44.0001V55.0002C4.99878 55.5521 5.44649 55.9998 5.99891 55.9998C6.55133 55.9998 6.99904 55.5521 6.99904 55.0002V45.0003H26.9988C27.5513 45.0003 27.999 44.5526 27.999 44.0001C27.999 43.4477 27.5513 43 26.9988 43Z" fill="#393186"/>
<path d="M6.99904 24.9999C6.99904 25.5523 6.55133 26 5.99891 26C5.44649 26 4.99878 25.5523 4.99878 24.9999C4.99878 24.4475 5.44649 23.9998 5.99891 23.9998C6.55133 23.9998 6.99904 24.4475 6.99904 24.9999Z" fill="#393186"/>
<path d="M27.999 23.9998H9.99897C9.44655 23.9998 8.99884 24.4475 8.99884 24.9999C8.99884 25.5523 9.44655 26 9.99897 26H27.999C28.5514 26 28.9991 25.5523 28.9991 24.9999C28.9991 24.4475 28.5514 23.9998 27.999 23.9998Z" fill="#393186"/>
<path d="M6.99904 29.0001C6.99904 29.5526 6.55133 30.0003 5.99891 30.0003C5.44649 30.0003 4.99878 29.5526 4.99878 29.0001C4.99878 28.4477 5.44649 28 5.99891 28C6.55133 28 6.99904 28.4477 6.99904 29.0001Z" fill="#393186"/>
<path d="M27.999 28H9.99897C9.44655 28 8.99884 28.4477 8.99884 29.0001C8.99884 29.5526 9.44655 30.0003 9.99897 30.0003H27.999C28.5514 30.0003 28.9991 29.5526 28.9991 29.0001C28.9991 28.4477 28.5514 28 27.999 28Z" fill="#393186"/>
<path d="M6.99904 33.0001C6.99904 33.5526 6.55133 34.0003 5.99891 34.0003C5.44649 34.0003 4.99878 33.5526 4.99878 33.0001C4.99878 32.4477 5.44649 32 5.99891 32C6.55133 32 6.99904 32.4477 6.99904 33.0001Z" fill="#393186"/>
<path d="M27.999 32H9.99897C9.44655 32 8.99884 32.4477 8.99884 33.0001C8.99884 33.5526 9.44655 34.0003 9.99897 34.0003H27.999C28.5514 34.0003 28.9991 33.5526 28.9991 33.0001C28.9991 32.4477 28.5514 32 27.999 32Z" fill="#393186"/>
<path d="M6.99904 37.0001C6.99904 37.5521 6.55133 37.9998 5.99891 37.9998C5.44649 37.9998 4.99878 37.5521 4.99878 37.0001C4.99878 36.4477 5.44649 36 5.99891 36C6.55133 36 6.99904 36.4477 6.99904 37.0001Z" fill="#393186"/>
<path d="M27.999 36H9.99897C9.44655 36 8.99884 36.4477 8.99884 37.0001C8.99884 37.5521 9.44655 37.9998 9.99897 37.9998H27.999C28.5514 37.9998 28.9991 37.5521 28.9991 37.0001C28.9991 36.4477 28.5514 36 27.999 36Z" fill="#393186"/>
<path d="M19.9989 49.9999H17.9991V48.0001C17.9991 47.4477 17.5514 47 16.999 47C16.4465 47 15.9988 47.4477 15.9988 48.0001V49.9999H13.999C13.4466 49.9999 12.9989 50.4476 12.9989 51.0001C12.9989 51.5525 13.4466 52.0002 13.999 52.0002H15.9988V54C15.9988 54.5524 16.4465 55.0001 16.999 55.0001C17.5514 55.0001 17.9991 54.5524 17.9991 54V52.0002H19.9989C20.5513 52.0002 20.999 51.5525 20.999 51.0001C20.999 50.4476 20.5513 49.9999 19.9989 49.9999Z" fill="#393186"/>
<path d="M45.999 32C44.2887 32.0028 42.5937 32.3211 40.9988 32.9391V2.99992C40.9988 1.34312 39.6557 0 37.9989 0H10.9991C10.9772 0 10.9591 0.0111694 10.9381 0.0121002C10.8474 0.0181504 10.758 0.0363006 10.6719 0.0660858C10.6403 0.075859 10.6096 0.0870284 10.5789 0.10006C10.4755 0.147064 10.3811 0.211288 10.2992 0.28994L0.298782 10.2898V10.295C0.216408 10.3778 0.14846 10.4741 0.0991287 10.5802C0.0865631 10.611 0.0753936 10.6421 0.0660859 10.6743C0.0363007 10.7594 0.017685 10.8488 0.0121002 10.9391C0.0121002 10.9609 0 10.9791 0 11V57C0.0181504 58.6721 1.38594 60.0139 3.0581 59.9999H43.9992C44.1435 59.9976 44.2854 59.9636 44.4148 59.8998C49.5895 60.5211 54.6804 58.2165 57.6282 53.9191C60.576 49.6212 60.893 44.042 58.4506 39.4384C56.0077 34.8347 51.2105 31.9688 45.999 32ZM9.99897 3.41412V9.00024C9.99897 9.5522 9.55126 9.9999 8.99884 9.9999H3.41319L9.99897 3.41412ZM3.05717 58.0001C2.48939 58.0145 2.01655 57.5677 1.99886 57V12.0002H8.99884C10.6556 12.0002 11.9992 10.657 11.9992 9.00024V2.00026H37.9989C38.5513 2.00026 38.999 2.44797 38.999 2.99992V33.8941C34.6997 36.3682 32.0353 40.9369 32 45.8971C31.9641 50.8572 34.562 55.4642 38.825 58.0001H3.05717ZM45.999 58.0001C39.3718 58.0001 33.9988 52.6276 33.9988 45.9999C33.9988 39.3727 39.3718 34.0002 45.999 34.0002C52.6267 34.0002 57.9992 39.3727 57.9992 45.9999C57.9917 52.6243 52.6234 57.9931 45.999 58.0001Z" fill="#393186"/>
<path d="M51.23 39.3602L41.9301 50.5189L39.7041 48.2929C39.3118 47.9141 38.6882 47.9197 38.3023 48.305C37.9165 48.6908 37.9109 49.3145 38.2902 49.7073L41.2902 52.7072C41.4782 52.8952 41.7332 53.0004 41.999 52.9999H42.0441C42.3252 52.9874 42.5881 52.857 42.7683 52.6411L52.7682 40.6409C53.1214 40.2165 53.0637 39.5854 52.6392 39.2322C52.2143 38.8785 51.5833 38.9362 51.23 39.3611V39.3602Z" fill="#393186"/>
</svg>
