<svg width="18" height="17" viewBox="0 0 18 17" fill="none" xmlns="http://www.w3.org/2000/svg">
<path d="M14.5104 4.29625H12.9075V2.66911C12.9075 1.23837 11.7487 0.0744629 10.3244 0.0744629H7.52415C6.09982 0.0744629 4.94104 1.23837 4.94104 2.66911V4.29625H3.33817C1.91384 4.29625 0.755066 5.46015 0.755066 6.8909V9.71611C0.755066 11.1469 1.91384 12.3108 3.33817 12.3108H4.94104V13.938C4.94104 15.3686 6.09982 16.5327 7.52415 16.5327H10.3244C11.7487 16.5327 12.9075 15.3688 12.9075 13.938V12.3108H14.5104C15.9347 12.3108 17.0935 11.1469 17.0935 9.71611V6.8909C17.0936 5.46015 15.9347 4.29625 14.5104 4.29625ZM14.7611 9.71599C14.7611 9.86049 14.6487 9.97816 14.5105 9.97816H11.7414C11.0974 9.97816 10.5751 10.5003 10.5751 11.1444V13.9379C10.5751 14.0824 10.4627 14.2001 10.3245 14.2001H7.52427C7.38595 14.2001 7.27364 14.0825 7.27364 13.9379V11.1444C7.27364 10.5003 6.7514 9.97816 6.1074 9.97816H3.33828C3.19997 9.97816 3.08766 9.86061 3.08766 9.71599V6.89078C3.08766 6.74616 3.20009 6.62861 3.33828 6.62861H6.1074C6.7514 6.62861 7.27364 6.10648 7.27364 5.46237V2.669C7.27364 2.52438 7.38607 2.40682 7.52427 2.40682H10.3245C10.4627 2.40682 10.5751 2.52438 10.5751 2.669V5.46237C10.5751 6.10648 11.0974 6.62861 11.7414 6.62861H14.5105C14.6488 6.62861 14.7611 6.74616 14.7611 6.89078V9.71599Z" fill="#393186"/>
</svg>
