<svg width="60" height="51" viewBox="0 0 60 51" fill="none" xmlns="http://www.w3.org/2000/svg">
<path d="M48.6952 20.5954C48.8095 20.3008 48.9148 20.0069 49.0104 19.715C49.6542 17.7511 49.9172 15.7545 49.8146 13.6111C49.6446 10.0608 48.0015 6.64743 45.1881 3.99984C42.4869 1.45791 39.0548 0 35.7718 0C30.8806 0 27.058 2.73051 25.2146 4.35823C25.0775 4.4794 24.8776 4.48196 24.7395 4.36394C22.829 2.73412 18.922 0 14.2216 0C10.3375 0 4.07559 2.10385 0.709402 10.0985C-0.973537 16.41 0.807294 14.7389 1.30493 15.1477C2.15451 15.388 1.97171 11.3608 5.23316 6.94984C7.57333 4.10189 11.0176 2.33259 14.2216 2.33259C18.174 2.33259 21.5594 4.71719 23.2256 6.1386C24.2396 7.00348 25.7583 6.98984 26.7585 6.10676C28.3547 4.69725 31.6484 2.33259 35.7716 2.33259C41.0431 2.33259 47.1724 7.20373 47.4847 13.7228C47.5734 15.577 47.3472 17.2995 46.7936 18.9887C46.6625 19.3887 46.5149 19.7831 46.3468 20.1817C45.8784 20.1373 45.4038 20.1145 44.924 20.1145C36.6111 20.1145 29.848 26.9283 29.848 35.3035C29.848 35.6996 29.8631 36.0921 29.8929 36.4807C28.7392 37.4215 27.8017 38.1918 27.0182 38.8549C25.8351 39.8565 24.1179 39.8563 22.935 38.8542C21.8768 37.9576 20.5008 36.8365 19.0442 35.6495C13.7865 31.3651 6.58565 25.4974 4.85227 22.5524C3.71262 20.6163 2.71506 18.6599 2.39271 16.8308C1.97194 15.1477 2.35511 13.1272 2.32758 12.9146C2.24466 12.2759 1.94367 13.8025 1.30493 13.8854C0.666179 13.9683 -0.0491402 13.7674 0.0337792 14.406C-0.109244 15.3388 0.245485 17.0056 0.288869 17.2516C0.661131 19.3638 1.5566 21.5515 2.84214 23.7355C4.78778 27.0412 11.8756 32.8167 17.5708 37.4575C19.0187 38.6373 20.3861 39.7516 21.4273 40.6338C22.4557 41.5051 23.7161 41.9406 24.9771 41.9406C26.237 41.9406 27.4972 41.5053 28.5252 40.6352C29.049 40.1919 29.6456 39.6975 30.3334 39.1333C32.0224 45.6606 37.9237 50.4924 44.924 50.4924C53.237 50.4924 60 43.6787 60 35.3035C60.0002 28.2396 55.1892 22.2864 48.6952 20.5954ZM44.9243 48.1599C37.8973 48.1599 32.1806 42.3925 32.1806 35.3034C32.1806 28.2143 37.8973 22.4469 44.9243 22.4469C51.9511 22.4469 57.6679 28.2143 57.6679 35.3034C57.6678 42.3925 51.9511 48.1599 44.9243 48.1599Z" fill="#393186"/>
<path d="M50.5104 31.2962H48.9075V29.6691C48.9075 28.2384 47.7487 27.0745 46.3244 27.0745H43.5241C42.0998 27.0745 40.941 28.2384 40.941 29.6691V31.2962H39.3382C37.9138 31.2962 36.7551 32.4602 36.7551 33.8909V36.7161C36.7551 38.1469 37.9138 39.3108 39.3382 39.3108H40.941V40.938C40.941 42.3686 42.0998 43.5327 43.5241 43.5327H46.3244C47.7487 43.5327 48.9075 42.3688 48.9075 40.938V39.3108H50.5104C51.9347 39.3108 53.0935 38.1469 53.0935 36.7161V33.8909C53.0936 32.4602 51.9347 31.2962 50.5104 31.2962ZM50.7611 36.716C50.7611 36.8605 50.6487 36.9782 50.5105 36.9782H47.7414C47.0974 36.9782 46.5751 37.5003 46.5751 38.1444V40.9379C46.5751 41.0824 46.4627 41.2001 46.3245 41.2001H43.5243C43.386 41.2001 43.2736 41.0825 43.2736 40.9379V38.1444C43.2736 37.5003 42.7514 36.9782 42.1074 36.9782H39.3383C39.2 36.9782 39.0877 36.8606 39.0877 36.716V33.8908C39.0877 33.7462 39.2001 33.6286 39.3383 33.6286H42.1074C42.7514 33.6286 43.2736 33.1065 43.2736 32.4624V29.669C43.2736 29.5244 43.3861 29.4068 43.5243 29.4068H46.3245C46.4627 29.4068 46.5751 29.5244 46.5751 29.669V32.4624C46.5751 33.1065 47.0974 33.6286 47.7414 33.6286H50.5105C50.6488 33.6286 50.7611 33.7462 50.7611 33.8908V36.716Z" fill="#393186"/>
</svg>
