<svg width="60" height="60" viewBox="0 0 60 60" fill="none" xmlns="http://www.w3.org/2000/svg">
<path d="M14.3438 44.3438L7.5 51.1875L6.28125 49.9688C5.90625 49.5938 5.34375 49.5938 4.96875 49.9688C4.59375 50.3438 4.59375 50.9063 4.96875 51.2813L6.84375 53.1563C7.03125 53.3438 7.21875 53.4375 7.5 53.4375C7.78125 53.4375 7.96875 53.3438 8.15625 53.1563L15.6563 45.6563C16.0313 45.2813 16.0313 44.7188 15.6563 44.3438C15.2813 43.9688 14.7188 43.9688 14.3438 44.3438Z" fill="#393186"/>
<path d="M23.7188 43.4062C23.25 43.2187 22.6875 43.4062 22.5 43.875L21.8438 45.2812C21.2812 43.6875 20.3438 42.1875 19.125 40.9687C14.7188 36.5625 7.59375 36.5625 3.1875 40.9687C1.125 42.9375 0 45.75 0 48.75C0 51.75 1.125 54.5625 3.28125 56.7187C5.53125 58.875 8.34375 60 11.25 60C14.1562 60 17.0625 58.875 19.2188 56.7187C19.5938 56.3437 19.5938 55.7812 19.2188 55.4062C18.8438 55.0312 18.2812 55.0312 17.9062 55.4062C14.25 59.0625 8.25 59.0625 4.59375 55.4062C2.8125 53.625 1.875 51.2812 1.875 48.75C1.875 46.2187 2.8125 43.875 4.59375 42.0938C8.25 38.4375 14.25 38.4375 17.9062 42.0938C19.0312 43.2188 19.875 44.625 20.3438 46.2187L18.2812 45.0937C17.8125 44.8125 17.25 45 16.9688 45.4687C16.6875 45.9375 16.875 46.5 17.3438 46.7812L21.0938 48.75C21.0938 48.75 21.1875 48.75 21.1875 48.8437C21.2812 48.8437 21.375 48.9375 21.4688 48.9375C21.4688 48.9375 21.4688 48.9375 21.5625 48.9375C21.6562 48.9375 21.6562 48.9375 21.75 48.9375C21.75 48.9375 21.75 48.9375 21.8438 48.9375C21.9375 48.9375 21.9375 48.8437 22.0312 48.8437C22.125 48.8437 22.125 48.75 22.125 48.75C22.2188 48.6562 22.2188 48.6562 22.2188 48.5625L22.3125 48.4687L24.1875 44.625C24.375 44.1562 24.1875 43.5937 23.7188 43.4062Z" fill="#393186"/>
<path d="M31.875 10.3125C31.3125 10.3125 30.9375 10.6875 30.9375 11.25V19.6875V19.7812V28.7812C30.9375 29.0625 31.0313 29.3438 31.3125 29.5312L37.5937 34.4062C37.3125 34.6875 37.0313 35.0625 36.75 35.25L37.9688 36.6562C38.4375 36.2812 38.8125 35.9063 39.1875 35.5313L44.3437 39.5625C44.5312 39.6562 44.7188 39.75 44.9063 39.75C45.1875 39.75 45.4688 39.6562 45.6563 39.375C45.9375 39 45.9375 38.3437 45.4688 38.0625L40.2188 33.9375C40.5 33.4688 40.7813 32.9062 40.9688 32.3438L39.1875 31.7813C39.0937 32.1563 38.9062 32.4375 38.7187 32.8125L32.8125 28.3125V21.5625L33 19.875C32.9063 19.875 32.8125 19.875 32.8125 19.875V11.25C32.8125 10.6875 32.4375 10.3125 31.875 10.3125Z" fill="#393186"/>
<path d="M22.125 29.3438C22.125 29.9062 22.125 30.375 22.2188 30.9375L24.0938 30.6563C24 30.1875 24 29.8125 24 29.3438C24 29.25 24 29.0625 24 28.9688L22.125 28.875C22.125 28.9688 22.125 29.1562 22.125 29.3438Z" fill="#393186"/>
<path d="M22.3125 27.75L24.1875 28.0312C24.2812 27.4687 24.4688 26.9063 24.6562 26.4375L22.875 25.7812C22.5938 26.3438 22.4062 27.0938 22.3125 27.75Z" fill="#393186"/>
<path d="M33.6562 21.8438C34.2188 21.9375 34.7812 22.2188 35.25 22.4063L36.0937 20.7188C35.4375 20.4375 34.7812 20.1563 34.125 19.9688L33.6562 21.8438Z" fill="#393186"/>
<path d="M23.3438 24.75L25.0313 25.5937C25.3125 25.125 25.5938 24.6562 25.9688 24.1875L24.5625 22.9688C24.0938 23.5312 23.625 24.1875 23.3438 24.75Z" fill="#393186"/>
<path d="M27.8438 20.5312L28.5937 22.2188C29.1562 22.0312 29.625 21.8438 30.1875 21.75L29.8125 19.875C29.1562 20.0625 28.5 20.25 27.8438 20.5312Z" fill="#393186"/>
<path d="M37.7812 24.5625C38.1562 25.0313 38.4375 25.5 38.7188 25.9688L40.4062 25.125C40.125 24.4687 39.75 23.9062 39.2813 23.3438L37.7812 24.5625Z" fill="#393186"/>
<path d="M32.0625 38.9063C32.8125 38.9063 33.4688 38.8125 34.125 38.625L33.6563 36.8438C33.0938 36.9375 32.5312 37.0313 31.9688 37.0313L32.0625 38.9063Z" fill="#393186"/>
<path d="M28.875 38.4375C29.5312 38.625 30.2813 38.8125 30.9375 38.8125L31.125 36.9375C30.5625 36.9375 30 36.75 29.4375 36.6562L28.875 38.4375Z" fill="#393186"/>
<path d="M34.5 36.5625L35.1563 38.3438C35.8125 38.0625 36.4688 37.7813 37.0313 37.4063L36 35.8125C35.5313 36.0938 34.9688 36.375 34.5 36.5625Z" fill="#393186"/>
<path d="M25.3125 36.2812L26.5312 34.9687C26.1562 34.5937 25.7813 34.125 25.4063 33.6562L23.9062 34.6875C24.2812 35.25 24.75 35.8125 25.3125 36.2812Z" fill="#393186"/>
<path d="M35.9062 22.875C36.375 23.1562 36.8438 23.5312 37.2188 23.9062L38.5312 22.5937C38.0625 22.125 37.5 21.6562 36.9375 21.2812L35.9062 22.875Z" fill="#393186"/>
<path d="M39 26.8125C39.1875 27.375 39.2813 27.9375 39.375 28.5L41.25 28.3125C41.1563 27.6563 40.9688 26.9062 40.7813 26.25L39 26.8125Z" fill="#393186"/>
<path d="M25.2188 22.3125L26.5312 23.7187C26.9062 23.3437 27.375 22.9688 27.9375 22.6875L27 21.0938C26.3437 21.375 25.7812 21.8437 25.2188 22.3125Z" fill="#393186"/>
<path d="M28.6875 36.375C28.125 36.1875 27.6563 35.9062 27.1875 35.5312L26.0625 37.0312C26.625 37.4062 27.2813 37.7812 27.8438 38.0625L28.6875 36.375Z" fill="#393186"/>
<path d="M39.2812 30.9375L41.1562 31.3125C41.3438 30.6563 41.3437 30 41.3437 29.0625H41.1562L39.4687 29.1563C39.4687 29.7188 39.375 30.375 39.2812 30.9375Z" fill="#393186"/>
<path d="M22.5 31.9687C22.6875 32.625 22.9687 33.2813 23.3437 33.9375L25.0313 33C24.75 32.5313 24.5625 31.9688 24.375 31.4062L22.5 31.9687Z" fill="#393186"/>
<path d="M51.75 8.8125C51.75 8.71875 51.6562 8.625 51.5625 8.53125C51.4688 8.4375 51.375 8.4375 51.2812 8.34375C46.2188 3.375 39.4688 0.28125 31.9687 0H31.875H31.7813C31.5 0 31.2188 0 30.9375 0C15.2812 0 2.4375 12.4687 1.875 28.0312V28.125V28.2188C1.875 28.5 1.875 28.7812 1.875 29.0625C1.875 30 1.96875 31.0312 2.0625 31.9687C2.15625 32.625 2.25 33.2812 2.34375 33.9375C2.34375 34.4062 2.8125 34.7812 3.375 34.6875C3.84375 34.5938 4.21875 34.125 4.125 33.5625C4.03125 33 3.9375 32.3438 3.84375 31.7813C3.75 30.8438 3.75 30 3.75 29.0625H6.5625C7.125 29.0625 7.5 28.6875 7.5 28.125C7.5 27.5625 7.125 27.1875 6.5625 27.1875H3.84375C4.3125 20.7188 7.03125 14.8125 11.25 10.4062L12.75 11.9062C12.9375 12.0938 13.2188 12.1875 13.4062 12.1875C13.5938 12.1875 13.875 12.0938 14.0625 11.9062C14.4375 11.5312 14.4375 10.9688 14.0625 10.5938L12.5625 9.09375C17.3438 4.59375 23.8125 1.875 30.9375 1.875V3.75C30.9375 4.3125 31.3125 4.6875 31.875 4.6875C32.4375 4.6875 32.8125 4.3125 32.8125 3.75V1.96875C39.1875 2.4375 45 5.0625 49.5 9.1875L48.0938 10.5938C47.7188 10.9688 47.7188 11.5312 48.0938 11.9062C48.2812 12.0938 48.5625 12.1875 48.75 12.1875C48.9375 12.1875 49.2188 12.0938 49.4062 11.9062L50.8125 10.5C54.9375 14.9062 57.6562 20.7188 58.0312 27.1875H56.25C55.6875 27.1875 55.3125 27.5625 55.3125 28.125C55.3125 28.6875 55.6875 29.0625 56.25 29.0625H58.125C58.125 36.1875 55.4062 42.6562 50.9062 47.5312L49.4062 46.0312C49.0312 45.6562 48.4688 45.6562 48.0938 46.0312C47.7188 46.4062 47.7188 46.9688 48.0938 47.3438L49.5938 48.8438C45.1875 53.0625 39.2812 55.7812 32.8125 56.25V54.375C32.8125 53.8125 32.4375 53.4375 31.875 53.4375C31.3125 53.4375 30.9375 53.8125 30.9375 54.375V56.25C29.25 56.25 27.5625 56.0625 25.9688 55.7812C25.5 55.6875 24.9375 56.0625 24.8438 56.5312C24.75 57 25.125 57.5625 25.5938 57.6562C27.375 57.9375 29.1562 58.125 30.9375 58.125C31.2188 58.125 31.5 58.125 31.7813 58.125H31.875C31.9688 58.125 31.9687 58.125 31.9687 58.125C47.5312 57.5625 60 44.7188 60 29.0625C60 28.7812 60 28.5 60 28.2188V28.125C60 28.0312 60 28.0312 60 28.0312C59.7188 20.5312 56.625 13.7812 51.75 8.8125Z" fill="#393186"/>
</svg>
